<?xml version="1.0" encoding="UTF-8" standalone="no"?>
<!DOCTYPE svg PUBLIC "-//W3C//DTD SVG 1.1//EN" "http://www.w3.org/Graphics/SVG/1.1/DTD/svg11.dtd">
<svg xmlns="http://www.w3.org/2000/svg" version="1.1" viewBox="0.00 0.00 1366.00 765.00">
<g stroke-width="2.00" fill="none" stroke-linecap="butt">
<path stroke="#d1d2d4" vector-effect="non-scaling-stroke" d="
  M 1031.27 165.00
  Q 1030.83 164.39 1030.30 164.07
  Q 1029.69 163.71 1029.61 163.49
  Q 1029.45 163.03 1029.99 162.49"
/>
<path stroke="#808080" vector-effect="non-scaling-stroke" d="
  M 1029.99 162.49
  Q 1043.66 162.78 1051.00 162.66
  Q 1079.07 162.20 1118.49 162.09
  Q 1160.91 161.97 1235.49 161.22
  C 1270.82 160.87 1306.55 161.08 1344.26 160.99
  C 1354.95 160.97 1360.49 155.55 1360.48 144.94
  Q 1360.43 105.58 1360.45 66.82
  C 1360.46 59.77 1358.17 54.55 1350.88 52.63
  Q 1349.47 52.26 1348.10 51.85
  Q 1335.92 48.22 1324.25 48.65
  A 1.60 1.59 -5.7 0 1 1322.62 47.32
  C 1320.95 37.51 1314.86 28.70 1308.05 21.91
  C 1304.73 18.59 1301.00 14.40 1296.57 12.72
  Q 1286.16 8.77 1274.72 5.03
  Q 1268.29 2.93 1262.22 3.85
  Q 1252.84 5.27 1244.09 7.68
  Q 1241.35 8.44 1238.91 10.05
  Q 1232.01 14.59 1225.37 19.18
  C 1221.47 21.87 1218.15 25.15 1216.18 29.64
  Q 1211.91 39.40 1208.35 48.64
  C 1206.90 52.43 1202.34 55.18 1198.83 56.75
  Q 1196.47 57.81 1192.76 57.81
  Q 1071.36 57.63 941.64 57.82
  Q 935.27 57.83 927.72 59.59
  Q 925.31 60.15 924.49 60.16
  Q 913.97 60.39 902.50 60.35
  Q 861.85 60.18 817.75 60.43
  A 2.09 2.08 -12.9 0 1 815.85 59.24
  C 813.89 55.11 812.33 51.17 808.92 47.80
  Q 799.77 38.75 786.99 36.26
  Q 766.06 32.18 744.75 27.70
  Q 740.74 26.86 728.44 25.42
  C 717.45 24.13 706.02 24.15 694.96 24.10
  Q 569.34 23.53 443.73 22.71
  C 439.07 22.68 434.01 22.32 429.44 21.33
  Q 424.21 20.20 418.99 18.76
  C 413.31 17.19 407.49 16.98 401.54 17.02
  Q 383.11 17.13 366.54 17.14
  C 364.03 17.14 361.42 17.56 359.35 19.16
  C 355.05 22.48 352.29 27.35 349.25 31.72
  A 3.65 3.64 18.5 0 1 346.11 33.28
  C 340.16 33.03 333.47 32.54 327.68 33.51
  C 320.13 34.76 316.31 42.76 313.21 48.75
  Q 306.72 61.28 299.26 74.68
  C 297.53 77.80 295.89 79.75 292.96 81.76
  Q 281.28 89.74 267.42 83.81
  C 261.91 81.46 256.32 79.81 250.66 77.65
  Q 237.55 72.65 225.50 68.18
  C 219.29 65.88 212.10 66.71 208.32 72.61
  Q 206.03 76.18 205.49 77.88
  Q 203.00 85.61 200.25 92.92
  C 198.62 97.26 197.12 105.18 201.33 108.62
  Q 205.05 111.64 210.81 114.67
  Q 219.92 119.44 228.61 123.68
  Q 235.56 127.07 242.96 130.72
  Q 249.67 134.03 255.08 136.96
  Q 261.25 140.31 267.17 143.15
  Q 276.82 147.78 287.86 153.64
  A 2.76 2.75 -69.3 0 1 289.24 156.71
  Q 288.53 159.67 288.32 162.78
  C 287.59 173.57 287.51 184.63 286.65 195.25
  C 286.10 202.07 284.96 209.54 285.10 216.64
  C 285.15 218.94 280.43 219.49 278.98 219.65
  Q 264.02 221.35 249.02 223.12
  Q 242.17 223.93 235.01 224.81
  Q 228.84 225.57 220.94 225.63
  Q 204.22 225.75 187.50 225.55
  Q 173.89 225.38 165.51 226.43
  Q 158.46 227.31 150.47 230.30
  Q 147.74 231.32 145.61 233.21
  Q 136.17 241.59 131.92 251.92
  Q 130.65 255.01 127.80 264.55
  C 127.25 266.38 126.97 268.94 126.94 270.85
  Q 126.60 295.04 123.67 317.74
  C 123.16 321.68 122.42 325.43 122.09 329.39
  Q 121.56 335.58 121.14 341.58
  Q 120.74 347.32 119.51 350.77
  Q 117.98 355.04 115.11 359.62
  Q 104.60 376.37 95.42 392.35
  C 90.91 400.19 87.68 408.40 83.76 416.55
  C 78.40 427.68 73.42 438.98 68.02 450.08
  Q 64.07 458.19 60.62 465.92
  Q 57.11 473.77 53.21 481.76
  Q 47.83 492.80 45.70 499.51
  Q 35.33 532.18 23.87 565.15
  C 23.04 567.54 22.28 570.58 21.98 573.07
  C 20.79 583.04 18.46 592.75 17.19 602.21
  Q 16.12 610.16 14.71 617.84
  Q 11.28 636.60 10.38 647.26
  Q 8.53 669.32 5.54 714.08
  C 5.19 719.20 5.99 726.07 10.36 729.42
  C 16.81 734.38 24.06 738.19 32.22 740.74
  Q 38.12 742.58 44.19 744.44
  C 48.11 745.63 51.76 747.18 55.95 748.30
  Q 60.41 749.48 65.95 751.54
  Q 76.01 755.27 92.12 757.00
  Q 104.38 758.31 116.89 760.15
  C 122.86 761.03 128.81 761.21 134.80 760.90
  Q 145.10 760.36 155.38 759.23
  C 165.49 758.12 175.88 758.70 185.64 758.14
  C 195.19 757.59 198.44 749.57 198.71 741.18
  C 199.07 730.03 201.04 719.14 201.78 708.43
  Q 202.83 693.22 204.69 677.91
  Q 206.08 666.53 206.91 658.03
  Q 208.72 639.58 211.23 621.00
  Q 211.59 618.36 213.14 612.47
  Q 214.25 608.26 214.86 604.02
  Q 216.12 595.35 218.22 587.24
  C 219.64 581.70 220.05 575.96 221.48 570.21
  Q 223.53 561.95 225.10 552.92
  Q 225.43 551.04 227.22 547.23
  Q 228.38 544.75 229.49 541.84
  Q 236.33 523.79 242.72 506.43
  C 245.57 498.68 248.86 493.28 254.57 487.44
  Q 267.79 473.88 279.33 461.98
  Q 281.36 459.89 284.09 458.32
  C 292.04 453.76 299.88 450.14 308.77 448.00
  Q 316.31 446.19 323.42 444.16
  Q 330.01 442.29 339.23 442.78
  C 348.13 443.25 358.35 443.67 364.39 449.85
  C 370.35 455.94 375.70 461.59 379.77 469.44
  Q 390.89 490.90 403.00 510.21
  Q 404.71 512.92 407.19 515.48
  C 415.87 524.45 423.30 531.59 433.90 536.69
  Q 442.55 540.85 450.58 544.56
  C 455.11 546.65 460.15 547.68 464.80 549.52
  C 470.73 551.86 477.18 553.48 483.46 554.04
  C 493.38 554.92 503.24 555.78 513.44 555.19
  Q 526.09 554.45 537.04 553.79
  Q 549.23 553.06 561.94 549.28
  Q 565.88 548.10 571.52 547.35
  C 578.29 546.45 584.67 544.56 591.30 543.52
  C 598.94 542.32 607.59 540.74 613.46 537.27
  C 623.04 531.61 633.10 526.46 640.72 518.15
  Q 646.75 511.56 653.12 504.85
  C 660.85 496.69 666.91 488.01 673.06 478.82
  Q 674.23 477.07 675.03 475.03
  C 677.87 467.84 681.58 460.52 683.93 453.03
  C 686.13 446.02 685.85 440.47 685.27 433.69
  Q 684.33 422.65 683.59 409.49
  Q 683.19 402.42 681.61 395.76
  Q 680.97 393.09 681.34 389.91
  Q 683.03 375.64 689.39 364.84
  A 2.24 2.21 8.8 0 1 690.83 363.80
  C 696.22 362.60 701.50 361.43 706.72 359.25
  Q 712.67 356.76 718.81 354.69
  C 723.86 352.99 730.09 350.27 733.34 345.83
  Q 738.13 339.27 740.33 333.45
  Q 742.39 328.00 743.40 318.72
  Q 744.65 307.24 746.62 296.04
  C 747.52 290.92 747.51 285.73 748.16 280.57
  Q 748.77 275.78 750.41 271.08
  Q 753.05 263.48 756.17 255.80
  C 757.37 252.83 759.47 250.82 761.98 248.95
  Q 771.40 241.91 780.53 235.82
  Q 785.68 232.39 789.76 232.29
  C 796.09 232.13 803.21 232.81 809.31 230.88
  C 816.98 228.46 818.62 222.39 819.96 215.28
  A 1.72 1.72 0.0 0 1 821.64 213.88
  Q 867.66 213.79 916.98 213.92
  C 924.70 213.94 934.27 214.44 937.60 205.73
  Q 938.58 203.15 939.70 200.79
  A 3.17 3.17 0.0 0 1 942.39 198.99
  Q 951.24 198.55 961.18 198.68
  A 2.98 2.98 0.0 0 1 964.09 201.28
  C 965.33 210.99 967.31 216.45 978.38 216.68
  Q 1000.14 217.14 1027.54 216.66
  C 1030.45 216.61 1037.05 215.68 1038.52 212.40
  Q 1040.47 208.05 1040.50 202.75
  Q 1040.61 188.25 1040.38 177.01
  Q 1040.19 167.57 1031.27 165.00"
/>
<path stroke="#515354" vector-effect="non-scaling-stroke" d="
  M 1029.99 162.49
  L 1027.48 163.07
  A 0.37 0.37 0.0 0 0 1027.37 163.75
  Q 1028.96 164.71 1031.27 165.00"
/>
<path stroke="#161a1f" vector-effect="non-scaling-stroke" d="
  M 1233.92 48.57
  C 1252.91 49.14 1272.05 48.88 1290.81 48.58
  Q 1295.13 48.51 1299.42 48.11
  A 1.40 1.39 -17.7 0 0 1300.50 46.02
  Q 1297.08 40.11 1291.15 34.31
  Q 1288.92 32.12 1286.03 31.01
  Q 1279.26 28.40 1272.69 25.96
  C 1269.55 24.80 1265.35 23.63 1262.03 24.43
  C 1258.98 25.16 1255.93 25.07 1253.02 26.29
  Q 1240.73 31.40 1233.92 40.64
  Q 1232.18 43.01 1231.08 45.78
  Q 1230.90 46.23 1231.03 46.69
  Q 1231.58 48.50 1233.92 48.57"
/>
<path stroke="#161a1f" vector-effect="non-scaling-stroke" d="
  M 424.63 143.09
  C 425.03 128.35 425.10 113.54 424.38 98.91
  C 424.14 94.00 424.39 89.06 424.16 84.23
  C 423.89 78.82 422.21 75.53 418.81 70.86
  C 412.11 61.63 407.39 54.06 401.34 45.90
  C 397.84 41.19 396.00 38.26 390.51 38.01
  Q 384.59 37.75 376.00 37.89
  C 373.44 37.93 370.78 37.98 368.98 40.16
  Q 363.19 47.19 362.05 53.33
  C 361.34 57.11 361.97 62.92 361.81 67.47
  C 361.01 90.12 361.35 112.57 358.54 135.05
  Q 358.33 136.74 358.82 138.17
  A 1.50 1.48 78.2 0 0 360.33 139.17
  C 368.28 138.60 376.59 139.22 384.31 139.23
  Q 398.11 139.24 411.43 139.18
  C 415.80 139.16 419.41 141.58 422.88 143.98
  A 1.12 1.11 -71.9 0 0 424.63 143.09"
/>
<path stroke="#161a1f" vector-effect="non-scaling-stroke" d="
  M 468.37 47.03
  L 468.37 45.75
  Q 468.37 45.11 467.74 45.05
  Q 464.54 44.74 461.16 44.90
  C 460.08 44.96 459.16 44.58 458.04 44.61
  Q 446.71 44.85 434.69 43.95
  C 431.94 43.74 429.18 43.11 426.50 42.58
  Q 425.70 42.42 425.47 42.65
  A 1.22 1.18 49.5 0 0 425.38 44.20
  Q 428.79 48.95 432.35 53.67
  C 434.49 56.52 436.66 58.29 440.47 57.94
  Q 450.74 57.01 464.25 56.30
  Q 465.25 56.25 466.26 55.94
  Q 467.35 55.62 468.27 55.58
  Q 473.91 55.31 479.82 55.35
  C 480.76 55.36 481.65 55.80 482.51 55.56
  Q 483.52 55.29 484.49 55.32
  Q 496.49 55.74 508.52 55.60
  Q 508.87 55.60 509.14 55.82
  Q 509.28 55.92 509.45 55.91
  C 516.97 55.26 524.98 56.01 532.19 55.55
  Q 543.99 54.78 550.25 55.04
  Q 562.55 55.56 574.84 56.05
  C 575.54 56.08 576.24 55.79 576.99 55.83
  Q 582.75 56.13 588.51 56.31
  Q 590.22 56.37 591.99 56.22
  Q 593.73 56.08 595.64 56.23
  Q 600.60 56.61 606.27 56.25
  Q 613.93 55.76 616.77 55.70
  Q 624.31 55.52 631.75 55.64
  C 633.75 55.67 635.57 56.25 637.66 55.96
  C 639.52 55.69 641.25 56.15 643.10 56.13
  C 648.54 56.08 653.86 55.91 659.50 56.35
  Q 662.79 56.60 666.02 56.63
  Q 666.53 56.63 666.93 56.96
  Q 667.30 57.27 667.76 57.10
  Q 669.01 56.62 670.25 56.65
  Q 681.51 56.91 692.76 58.21
  C 697.62 58.77 700.03 61.92 702.78 65.40
  A 2.34 2.34 0.0 0 0 704.96 66.26
  Q 706.96 65.96 708.83 66.00
  Q 740.70 66.55 774.99 65.80
  Q 784.31 65.60 793.29 66.38
  Q 793.87 66.43 794.18 65.95
  Q 795.35 64.13 793.70 62.59
  Q 791.93 60.94 789.29 59.64
  C 784.98 57.52 780.27 56.69 775.82 55.39
  C 770.43 53.82 764.65 52.99 759.05 51.98
  Q 755.98 51.42 750.53 50.03
  Q 741.56 47.72 732.30 46.99
  C 727.86 46.64 723.48 45.95 719.09 45.24
  C 712.45 44.16 705.43 44.23 698.74 44.42
  Q 687.52 44.72 675.50 45.15
  Q 665.88 45.48 655.48 45.71
  Q 644.97 45.94 635.98 46.32
  Q 626.25 46.73 616.49 46.56
  Q 590.02 46.10 575.25 46.40
  Q 566.53 46.59 557.82 46.66
  Q 557.54 46.67 543.70 46.97
  Q 534.83 47.17 524.92 46.41
  Q 520.51 46.07 505.29 46.24
  Q 498.53 46.32 490.56 45.41
  A 1.02 1.00 -68.6 0 0 489.62 45.83
  Q 489.15 46.50 489.71 47.11
  A 0.82 0.82 0.0 0 1 489.18 48.48
  L 481.88 49.10
  Q 481.13 49.16 480.45 48.81
  Q 479.80 48.48 479.07 48.55
  Q 473.79 49.09 468.83 47.64
  A 0.63 0.63 0.0 0 1 468.37 47.03"
/>
<path stroke="#161a1f" vector-effect="non-scaling-stroke" d="
  M 471.85 46.15
  Q 471.78 46.32 472.05 46.47
  Q 472.33 46.62 472.65 46.62
  L 475.89 46.62
  Q 476.15 46.62 476.29 46.84
  Q 476.40 47.00 476.38 47.24
  Q 476.36 47.87 476.99 47.87
  L 486.49 47.87
  Q 487.01 47.87 486.92 47.37
  Q 486.84 46.91 487.26 46.76
  Q 488.17 46.42 489.07 45.95
  Q 489.90 45.53 488.97 45.52
  C 487.69 45.50 486.71 44.83 485.34 44.78
  Q 477.48 44.53 469.77 44.65
  Q 468.75 44.67 469.67 45.11
  Q 470.56 45.54 471.50 45.60
  Q 472.05 45.64 471.85 46.15"
/>
<path stroke="#515354" vector-effect="non-scaling-stroke" d="
  M 222.69 90.44
  Q 221.48 91.09 221.14 92.47
  Q 220.35 95.78 223.50 97.54
  Q 233.51 103.12 243.38 107.97
  Q 264.62 118.40 283.01 128.01
  C 290.42 131.89 298.98 134.90 305.30 140.48
  Q 309.49 144.18 309.28 150.05
  Q 308.46 172.04 306.91 196.25
  Q 306.58 201.31 306.54 207.42
  A 1.61 1.60 79.8 0 0 308.71 208.93
  Q 312.12 207.65 314.74 204.65
  Q 319.01 199.77 323.30 195.09
  Q 328.12 189.81 329.64 183.99
  C 330.77 179.62 331.57 175.23 333.04 171.01
  Q 335.17 164.92 335.93 158.00
  Q 338.25 136.97 339.63 115.24
  Q 340.29 104.81 340.43 95.21
  Q 340.69 76.65 340.79 57.46
  Q 340.80 55.57 339.88 53.72
  A 2.38 2.37 -33.2 0 0 336.23 52.96
  Q 333.59 55.16 331.84 58.45
  C 329.21 63.40 326.21 68.00 323.64 72.93
  Q 318.14 83.49 314.28 89.91
  Q 311.07 95.24 306.72 97.78
  C 301.39 100.88 295.62 104.81 289.93 106.26
  Q 276.60 109.65 265.29 105.16
  Q 244.60 96.95 224.33 90.30
  A 2.10 2.10 0.0 0 0 222.69 90.44"
/>
<path stroke="#161a1f" vector-effect="non-scaling-stroke" d="
  M 1188.00 141.84
  Q 1197.82 141.91 1206.67 141.74
  Q 1223.75 141.39 1225.33 141.38
  C 1242.05 141.28 1258.81 140.85 1276.00 140.90
  Q 1299.98 140.97 1323.52 140.00
  Q 1330.41 139.72 1337.47 139.89
  A 2.47 2.46 89.7 0 0 1339.99 137.34
  Q 1339.83 132.24 1339.86 127.25
  Q 1340.05 100.61 1339.90 74.50
  C 1339.88 70.26 1334.01 69.74 1330.50 69.72
  Q 1284.63 69.48 1229.25 69.49
  C 1224.55 69.49 1218.47 69.16 1214.28 71.73
  Q 1208.44 75.32 1202.64 77.31
  C 1197.74 79.00 1191.90 78.61 1186.50 78.62
  Q 1072.54 78.80 952.16 78.72
  C 948.65 78.72 945.01 79.02 941.50 79.00
  Q 938.90 78.99 938.88 81.59
  Q 938.68 107.61 938.94 138.21
  C 938.97 142.22 940.89 143.19 944.44 143.19
  C 958.31 143.20 971.82 142.73 985.99 142.65
  C 996.47 142.59 1007.18 142.12 1017.38 142.11
  Q 1063.02 142.05 1107.50 142.12
  C 1134.02 142.16 1159.98 141.65 1188.00 141.84"
/>
<path stroke="#808080" vector-effect="non-scaling-stroke" d="
  M 680.77 78.07
  L 676.93 78.11
  A 1.53 1.53 0.0 0 0 675.41 79.65
  L 675.87 132.50
  A 8.16 2.20 89.5 0 0 678.14 140.64
  L 680.64 140.62
  A 8.16 2.20 89.5 0 0 682.77 132.44
  L 682.31 79.59
  A 1.53 1.53 0.0 0 0 680.77 78.07"
/>
<path stroke="#0b0b0b" vector-effect="non-scaling-stroke" d="
  M 486.36 133.47
  Q 487.14 133.15 487.20 132.30
  Q 487.36 130.11 487.24 128.38
  Q 486.06 111.89 486.21 96.05
  Q 486.24 93.29 486.70 90.54
  C 487.18 87.63 489.37 78.84 484.25 78.75
  Q 466.39 78.40 448.90 79.10
  C 446.30 79.20 444.64 81.24 444.36 83.75
  C 444.11 86.00 443.84 88.15 443.92 90.42
  Q 444.34 102.71 444.64 115.00
  C 444.71 117.78 445.56 121.00 445.58 124.03
  C 445.62 129.98 445.94 135.97 445.89 141.89
  Q 445.70 161.48 445.37 181.90
  C 445.23 190.25 445.97 198.25 446.55 206.49
  Q 447.22 215.90 447.25 224.53
  Q 447.29 237.26 447.49 248.61
  C 447.53 250.38 448.15 252.47 448.13 254.01
  Q 448.06 261.41 447.58 268.16
  C 447.32 271.84 448.68 274.37 452.27 275.29
  C 455.93 276.23 459.71 276.95 463.55 276.96
  C 469.88 276.96 476.97 277.37 482.85 275.16
  C 484.92 274.38 487.10 274.75 489.26 274.15
  Q 490.32 273.85 490.46 272.76
  L 490.55 272.01
  A 0.85 0.85 0.0 0 0 489.31 271.15
  Q 484.65 273.61 480.06 272.47
  C 473.65 270.88 468.14 270.95 461.91 270.21
  C 456.50 269.57 453.88 265.47 453.67 260.30
  Q 453.02 244.12 456.91 229.12
  C 458.42 223.28 461.15 217.68 463.38 212.03
  C 464.11 210.19 465.47 206.66 467.48 206.02
  C 471.73 204.67 476.30 208.00 478.46 211.39
  Q 482.24 217.34 484.72 223.24
  Q 485.29 224.59 486.61 225.32
  Q 487.30 225.69 486.90 225.02
  C 484.77 221.45 486.17 218.73 486.14 215.03
  Q 485.94 191.36 485.97 167.29
  Q 485.97 163.22 485.33 158.69
  A 0.77 0.76 67.0 0 0 484.11 158.19
  C 480.60 160.90 475.78 162.11 471.35 162.00
  Q 468.01 161.91 464.34 162.09
  C 449.64 162.79 451.43 145.63 451.49 136.46
  C 451.52 131.74 452.86 127.42 453.71 122.93
  C 454.49 118.84 455.91 114.89 457.29 110.94
  Q 459.30 105.18 464.49 101.41
  Q 466.84 99.70 469.11 100.20
  Q 472.40 100.93 474.04 103.27
  Q 479.35 110.86 482.48 122.63
  C 483.04 124.73 484.32 126.31 484.43 128.57
  Q 484.55 130.80 485.24 132.91
  Q 485.53 133.80 486.36 133.47"
/>
<path stroke="#161a1f" vector-effect="non-scaling-stroke" d="
  M 917.91 86.02
  A 5.20 5.20 0.0 0 0 912.71 80.82
  L 820.87 80.82
  A 5.20 5.20 0.0 0 0 815.67 86.02
  L 815.67 137.98
  A 5.20 5.20 0.0 0 0 820.87 143.18
  L 912.71 143.18
  A 5.20 5.20 0.0 0 0 917.91 137.98
  L 917.91 86.02"
/>
<path stroke="#0b0b0b" vector-effect="non-scaling-stroke" d="
  M 660.97 93.71
  Q 660.91 92.27 660.74 90.99
  A 1.27 1.27 0.0 0 0 658.68 90.17
  Q 654.80 93.31 651.16 94.67
  C 644.97 96.99 638.13 98.01 631.38 98.05
  C 625.61 98.08 620.06 99.04 614.40 99.19
  Q 603.01 99.51 592.28 100.32
  C 588.99 100.56 585.38 99.92 581.98 99.83
  Q 562.45 99.30 543.09 99.14
  C 539.85 99.12 536.02 98.51 533.21 97.42
  Q 528.87 95.72 523.30 92.79
  C 518.51 90.27 515.30 86.66 511.84 82.80
  A 1.16 1.16 0.0 0 0 509.90 83.15
  C 509.08 85.24 508.44 87.33 508.34 89.69
  Q 507.56 109.18 507.93 119.00
  Q 508.39 131.25 508.41 143.50
  Q 508.41 144.72 509.45 145.14
  A 1.38 1.36 -54.3 0 0 510.87 144.90
  C 519.07 137.70 526.51 131.23 537.98 131.12
  Q 552.63 130.99 566.75 130.84
  C 573.61 130.76 580.48 129.55 587.15 129.45
  Q 611.21 129.08 640.14 129.50
  Q 643.55 129.55 646.10 130.24
  Q 650.85 131.52 655.54 133.99
  C 657.63 135.09 662.50 137.27 662.65 132.94
  Q 662.91 125.33 662.33 121.64
  C 661.00 113.24 661.48 104.78 661.09 96.50
  Q 661.02 95.09 660.97 93.71"
/>
<path stroke="#161a1f" vector-effect="non-scaling-stroke" d="
  M 793.90 139.48
  L 794.57 90.68
  A 3.09 3.09 0.0 0 0 791.78 87.56
  Q 786.75 87.07 781.66 87.04
  Q 758.92 86.89 730.22 87.15
  Q 717.31 87.27 705.26 86.50
  A 1.69 1.68 0.3 0 0 703.47 88.27
  C 703.94 97.26 703.45 105.95 703.53 114.97
  Q 703.64 126.88 703.88 139.32
  Q 703.96 143.08 707.72 143.15
  Q 715.05 143.28 722.25 143.27
  Q 748.02 143.26 779.97 143.13
  Q 784.66 143.11 791.19 142.45
  A 3.02 3.02 0.0 0 0 793.90 139.48"
/>
<path stroke="#0b0b0b" vector-effect="non-scaling-stroke" d="
  M 654.77 152.50
  A 1.36 1.35 -52.6 0 0 654.66 151.64
  C 652.78 147.75 647.55 146.31 643.54 144.96
  Q 639.94 143.74 636.47 143.70
  Q 630.09 143.63 624.95 144.18
  Q 619.13 144.80 613.91 144.90
  Q 584.23 145.46 554.62 145.49
  C 549.26 145.50 543.88 146.07 538.50 146.51
  C 533.45 146.93 528.98 150.04 525.55 153.41
  C 521.98 156.91 526.68 161.12 529.41 163.30
  Q 531.35 164.85 534.49 165.99
  Q 538.61 167.49 540.25 167.51
  Q 553.75 167.62 567.26 167.73
  C 572.46 167.77 578.50 168.93 583.27 168.44
  Q 588.82 167.86 593.75 167.79
  Q 606.06 167.62 618.12 167.43
  Q 620.63 167.39 623.31 167.27
  Q 625.92 167.16 628.62 166.65
  Q 632.51 165.92 636.20 165.27
  Q 645.42 163.63 651.50 157.22
  C 652.81 155.83 654.38 154.47 654.77 152.50"
/>
<path stroke="#161a1f" vector-effect="non-scaling-stroke" d="
  M 224.74 357.23
  Q 226.23 358.00 227.72 358.69
  C 234.00 361.58 238.76 366.75 242.89 372.55
  Q 247.53 379.06 252.32 385.67
  Q 257.34 392.59 258.96 397.94
  Q 260.92 404.38 263.15 410.21
  C 266.70 419.49 268.86 429.28 270.28 438.87
  Q 270.65 441.35 272.97 440.38
  C 280.16 437.39 286.85 433.12 293.53 429.56
  Q 306.60 422.59 319.44 415.71
  C 323.91 413.32 328.50 411.56 333.22 409.96
  Q 341.95 406.99 351.34 404.29
  Q 359.88 401.84 368.94 398.67
  Q 385.54 392.85 403.39 389.95
  C 411.03 388.71 418.39 386.63 426.01 385.60
  C 434.76 384.40 440.71 381.60 448.30 377.24
  Q 458.02 371.66 472.83 364.80
  C 478.45 362.20 484.32 360.23 489.91 357.69
  Q 496.16 354.85 501.33 353.46
  C 512.61 350.41 524.45 349.04 536.05 347.99
  C 544.66 347.22 553.03 347.64 561.46 347.43
  C 576.21 347.06 593.44 347.92 605.80 347.35
  Q 614.88 346.93 624.58 346.75
  C 635.61 346.55 647.96 344.88 659.87 344.96
  C 665.97 345.00 672.01 344.30 678.14 344.00
  C 689.74 343.44 700.98 340.33 711.54 335.42
  C 717.49 332.65 721.87 328.09 722.39 321.45
  C 722.79 316.30 723.12 311.20 723.92 306.21
  Q 725.81 294.43 727.63 277.40
  Q 728.15 272.54 730.43 265.91
  Q 733.75 256.26 737.33 247.68
  C 738.92 243.87 741.40 238.24 745.00 235.68
  Q 755.59 228.15 766.21 220.38
  C 770.12 217.53 768.09 214.75 768.06 210.95
  Q 767.91 195.46 767.91 181.14
  Q 767.90 172.19 771.65 165.11
  A 1.25 1.25 0.0 0 0 770.55 163.27
  Q 748.82 163.29 730.05 163.17
  C 722.70 163.12 715.59 163.56 708.66 163.39
  Q 703.51 163.27 703.67 168.37
  C 703.98 178.41 704.47 188.20 703.98 198.42
  Q 703.47 208.80 703.55 218.90
  Q 703.79 249.15 703.84 279.24
  Q 703.85 284.43 702.82 289.17
  C 701.11 297.08 692.93 298.46 686.00 298.47
  Q 572.77 298.76 458.50 298.47
  Q 452.22 298.46 449.47 297.16
  Q 442.32 293.80 434.68 290.46
  C 427.94 287.51 423.94 284.08 424.93 276.21
  C 425.34 273.01 425.68 269.90 425.68 266.66
  Q 425.64 231.78 425.43 197.76
  Q 425.38 189.45 425.12 179.50
  Q 425.04 176.35 422.86 173.88
  Q 417.08 167.34 412.28 163.20
  Q 407.76 159.30 402.94 159.25
  Q 382.50 159.03 359.80 159.34
  A 3.76 3.75 -84.4 0 0 356.18 162.32
  C 355.16 167.11 353.69 171.96 352.57 176.83
  Q 350.31 186.56 347.52 195.28
  Q 345.99 200.07 342.76 203.80
  Q 338.24 209.01 333.87 214.35
  C 330.41 218.58 326.20 222.27 321.51 224.94
  Q 310.11 231.41 297.52 236.69
  Q 293.94 238.20 290.41 238.70
  Q 281.76 239.94 271.92 241.33
  Q 261.51 242.79 250.39 243.50
  Q 244.51 243.88 240.01 244.45
  C 234.46 245.15 229.09 246.18 223.58 246.39
  C 207.24 247.02 190.84 246.86 174.66 246.68
  C 170.19 246.64 161.13 246.74 157.85 250.18
  Q 149.86 258.56 148.36 268.95
  Q 147.12 277.49 146.54 296.07
  C 146.28 304.34 144.93 312.26 143.95 320.47
  C 143.24 326.41 143.26 332.19 142.50 338.01
  A 1.67 1.67 0.0 0 0 144.37 339.88
  L 157.05 338.25
  A 14.63 14.47 -44.2 0 1 160.96 338.28
  Q 168.64 339.36 176.91 340.44
  C 182.87 341.22 188.46 342.63 194.13 343.79
  Q 199.27 344.83 204.29 347.09
  Q 210.77 350.00 215.39 352.64
  Q 218.62 354.49 221.77 355.83
  Q 223.27 356.46 224.74 357.23"
/>
<path stroke="#808080" vector-effect="non-scaling-stroke" d="
  M 964.19 175.63
  C 964.62 171.50 965.19 167.60 966.81 164.19
  A 0.91 0.91 0.0 0 0 965.97 162.90
  L 941.04 163.31
  A 1.89 1.88 -86.0 0 0 939.22 164.90
  C 938.86 167.25 938.21 175.69 940.21 177.53
  Q 941.08 178.33 942.37 178.35
  Q 952.40 178.51 961.58 178.09
  Q 963.95 177.98 964.19 175.63"
/>
<path stroke="#161a1f" vector-effect="non-scaling-stroke" d="
  M 918.00 170.93
  C 917.72 166.13 917.25 163.70 911.81 163.66
  C 907.90 163.63 904.09 163.20 900.17 163.21
  Q 874.82 163.30 846.16 163.14
  C 837.68 163.09 828.49 163.56 819.73 163.31
  Q 818.96 163.29 818.24 163.53
  A 1.52 1.52 0.0 0 0 817.27 165.40
  C 818.49 169.55 819.81 173.84 820.00 178.16
  Q 820.25 183.70 820.62 189.54
  C 820.86 193.32 825.90 193.25 828.53 193.24
  Q 862.31 193.05 893.52 193.00
  C 900.34 192.99 907.28 193.53 914.22 192.84
  Q 917.54 192.51 917.65 188.95
  Q 917.87 181.87 918.07 175.53
  Q 918.13 173.30 918.00 170.93"
/>
<path stroke="#0b0b0b" vector-effect="non-scaling-stroke" d="
  M 508.29 170.13
  Q 507.58 190.61 508.15 209.61
  C 508.21 211.40 508.38 213.47 508.85 215.20
  Q 510.90 222.87 511.21 230.86
  C 511.37 234.96 512.37 239.10 513.13 243.22
  A 1.82 1.81 65.2 0 0 516.06 244.30
  C 521.82 239.64 527.22 235.97 534.58 234.36
  Q 543.60 232.39 555.47 231.57
  Q 564.83 230.92 575.61 230.95
  Q 597.51 231.01 615.15 230.98
  C 618.25 230.97 621.25 231.34 624.33 231.57
  C 628.53 231.89 632.51 232.88 636.71 233.09
  C 641.79 233.35 646.95 234.91 651.91 236.17
  Q 656.96 237.45 660.03 240.12
  Q 660.66 240.66 661.38 240.94
  Q 662.86 241.52 663.47 239.96
  Q 664.11 238.33 664.08 236.24
  Q 663.92 223.04 663.82 209.67
  C 663.75 199.76 662.73 189.77 662.31 179.76
  Q 662.14 175.79 662.39 172.03
  A 1.25 1.24 3.1 0 0 661.19 170.70
  C 658.18 170.60 652.41 174.46 649.70 176.00
  C 646.27 177.95 641.80 179.19 637.93 179.98
  Q 633.16 180.96 628.77 181.74
  Q 621.57 183.02 610.00 183.03
  Q 582.17 183.04 554.63 183.01
  C 547.12 183.00 540.49 182.29 533.16 180.74
  Q 523.52 178.71 517.85 172.84
  C 516.20 171.13 511.65 166.20 509.23 166.70
  A 0.94 0.92 88.3 0 0 508.50 167.49
  Q 508.34 168.76 508.29 170.13"
/>
<path stroke="#808080" vector-effect="non-scaling-stroke" d="
  M 679.88 248.76
  Q 680.00 263.38 680.43 278.41
  A 0.48 0.47 0.7 0 0 680.89 278.87
  Q 681.75 278.92 682.14 278.10
  Q 682.67 277.00 682.72 276.00
  Q 683.11 268.88 683.05 261.32
  Q 682.91 241.72 682.12 220.95
  Q 682.05 219.06 680.16 219.15
  L 679.91 219.16
  Q 678.26 219.23 678.31 220.88
  Q 678.76 235.79 679.67 249.39
  Q 679.68 249.53 679.75 249.41
  Q 679.77 249.37 679.79 249.33
  Q 679.84 249.25 679.85 249.15
  Q 679.86 248.96 679.86 248.76
  Q 679.87 248.02 679.88 248.76"
/>
<path stroke="#0b0b0b" vector-effect="non-scaling-stroke" d="
  M 531.66 256.50
  C 535.07 258.01 538.81 259.40 542.57 259.29
  C 549.29 259.10 555.57 258.80 562.47 259.60
  Q 577.14 261.30 589.76 262.17
  C 593.11 262.41 596.36 262.58 599.76 262.36
  C 608.83 261.79 617.82 261.05 626.86 260.62
  Q 638.20 260.09 649.80 257.81
  Q 651.00 257.58 651.93 256.71
  A 1.35 1.35 0.0 0 0 652.36 255.70
  Q 652.34 253.13 649.84 251.96
  C 647.73 250.97 645.61 250.13 643.25 249.70
  C 639.40 249.00 635.62 247.81 631.79 247.66
  C 622.06 247.28 611.85 247.66 602.11 246.32
  Q 592.83 245.05 584.86 246.27
  Q 579.09 247.15 573.91 247.32
  Q 559.95 247.79 546.26 247.90
  C 543.82 247.92 541.86 248.78 539.52 249.06
  C 536.83 249.38 531.21 251.49 530.64 254.58
  A 1.77 1.76 -73.0 0 0 531.66 256.50"
/>
<path stroke="#161a1f" vector-effect="non-scaling-stroke" d="
  M 683.23 258.42
  C 682.85 259.97 683.22 262.68 683.23 264.43
  Q 683.23 264.48 683.29 264.50
  Q 683.33 264.51 683.38 264.51
  Q 683.48 264.49 683.49 264.39
  Q 683.66 261.54 683.51 258.45
  Q 683.47 257.44 683.23 258.42"
/>
<path stroke="#29201f" vector-effect="non-scaling-stroke" d="
  M 249.11 436.63
  Q 248.27 429.28 247.46 427.28
  Q 245.24 421.77 243.60 416.07
  C 242.57 412.49 241.21 409.19 239.87 405.72
  Q 238.42 401.99 235.95 398.50
  C 230.15 390.31 225.78 381.02 216.74 376.10
  Q 201.21 367.63 189.15 363.37
  Q 186.31 362.37 183.84 362.08
  Q 176.27 361.18 168.32 359.46
  Q 161.09 357.89 156.74 358.30
  Q 152.04 358.76 145.51 360.15
  C 141.02 361.11 138.08 361.50 136.03 365.00
  Q 128.61 377.64 120.31 391.48
  Q 117.90 395.48 115.22 399.67
  Q 112.60 403.75 110.67 408.08
  Q 105.58 419.49 103.75 422.89
  Q 99.93 429.99 97.35 436.36
  C 96.08 439.50 94.39 442.24 93.03 445.32
  Q 91.63 448.47 89.73 452.01
  Q 88.20 454.85 86.59 459.04
  C 83.21 467.76 77.99 476.33 74.22 485.42
  Q 70.38 494.67 66.27 503.14
  C 64.57 506.65 64.28 510.73 62.68 514.42
  C 61.01 518.27 60.37 522.41 58.67 526.27
  C 56.75 530.65 55.87 535.18 54.13 539.60
  Q 52.08 544.81 51.39 547.39
  Q 50.37 551.15 49.05 554.56
  C 47.16 559.45 46.71 564.57 44.30 569.32
  C 42.70 572.45 42.44 575.83 42.12 579.26
  Q 41.77 582.94 40.97 586.67
  Q 39.05 595.58 37.83 604.46
  C 36.63 613.26 34.29 622.62 33.32 631.89
  C 33.00 635.05 31.97 638.14 31.56 641.08
  Q 29.54 655.89 29.07 671.24
  C 28.82 679.07 28.76 686.79 27.73 694.31
  Q 26.61 702.49 26.07 710.86
  Q 25.78 715.31 29.48 717.08
  Q 35.71 720.06 42.24 722.08
  C 54.28 725.82 66.21 729.99 78.00 733.95
  Q 82.17 735.35 90.73 736.06
  C 101.31 736.92 110.37 738.54 120.03 739.91
  Q 129.42 741.24 135.39 740.63
  Q 155.55 738.59 174.56 738.92
  Q 178.02 738.97 178.56 735.31
  Q 179.94 726.02 180.20 717.90
  Q 180.48 709.19 181.49 701.51
  C 183.02 689.87 184.57 678.23 185.27 666.34
  Q 185.74 658.44 186.58 652.17
  Q 187.28 647.03 188.02 641.64
  C 189.13 633.57 189.26 625.34 190.74 617.85
  Q 192.83 607.23 195.75 593.49
  C 196.44 590.22 197.62 587.01 197.97 583.73
  Q 198.38 579.92 199.29 576.37
  Q 202.11 565.29 203.84 554.15
  C 204.51 549.81 206.44 546.09 207.59 541.89
  Q 208.77 537.54 210.62 532.74
  Q 217.31 515.30 224.01 497.91
  C 227.70 488.34 231.24 481.54 238.26 474.63
  C 243.05 469.92 247.38 464.68 252.22 459.98
  C 253.60 458.64 254.04 457.22 253.37 455.27
  Q 250.21 446.18 249.11 436.63"
/>
<path stroke="#808080" vector-effect="non-scaling-stroke" d="
  M 443.86 518.70
  Q 454.20 523.71 458.02 525.10
  Q 465.78 527.91 473.72 530.82
  Q 480.50 533.30 483.76 533.47
  C 492.56 533.93 501.82 535.93 510.76 535.18
  Q 524.95 534.00 537.40 533.10
  C 541.22 532.82 545.73 532.05 548.75 531.31
  Q 563.03 527.83 577.05 525.33
  Q 580.05 524.80 583.37 523.95
  Q 586.72 523.10 591.45 522.57
  C 599.22 521.69 605.44 517.83 612.91 513.45
  Q 618.39 510.24 622.23 506.76
  C 633.71 496.34 643.72 484.46 652.63 472.36
  Q 655.44 468.56 657.37 463.66
  Q 660.15 456.60 663.00 449.40
  Q 664.76 444.97 664.62 440.87
  Q 664.30 431.32 663.84 421.75
  Q 663.64 417.68 662.87 412.80
  Q 662.23 408.75 658.45 402.86
  Q 655.22 397.81 651.72 392.65
  Q 643.49 380.52 631.31 372.94
  C 626.31 369.82 620.62 367.12 615.37 367.04
  Q 596.08 366.76 576.42 367.60
  A 1.45 1.44 6.0 0 0 575.09 368.67
  C 573.45 374.83 570.24 377.56 565.58 381.65
  Q 555.83 390.20 546.39 397.27
  Q 541.82 400.69 539.22 404.89
  Q 531.99 416.55 525.24 430.30
  Q 523.34 434.16 523.23 437.78
  Q 522.97 446.91 522.99 458.64
  Q 523.00 460.30 523.40 461.84
  C 525.96 471.49 529.80 482.19 535.87 490.78
  C 539.49 495.92 543.56 498.29 549.63 499.46
  Q 552.56 500.03 555.40 500.95
  C 560.68 502.66 567.45 501.92 572.96 501.20
  C 583.20 499.86 592.76 505.21 588.04 517.06
  C 586.59 520.72 579.88 521.56 576.44 521.70
  Q 568.94 521.99 561.76 522.25
  C 552.29 522.59 543.40 519.33 534.53 516.26
  C 530.31 514.80 526.30 512.37 523.65 508.79
  Q 520.06 503.94 516.28 498.97
  C 511.05 492.10 508.82 483.23 505.87 475.24
  C 503.61 469.09 502.63 463.17 502.53 456.69
  Q 502.34 443.97 503.32 432.51
  Q 503.80 426.92 506.60 420.93
  C 509.57 414.59 510.53 406.32 505.86 400.49
  Q 504.15 398.35 501.73 397.88
  Q 496.87 396.96 491.14 395.92
  Q 488.98 395.53 486.80 395.84
  Q 475.09 397.53 462.75 399.36
  C 459.37 399.86 456.68 397.85 452.95 399.69
  C 443.06 404.54 433.96 409.26 424.86 415.82
  C 420.85 418.71 412.48 425.97 411.48 431.26
  C 410.25 437.69 408.37 444.24 408.20 450.48
  C 408.03 456.74 408.52 462.97 406.12 468.83
  C 405.05 471.46 405.23 473.99 406.64 476.40
  Q 411.57 484.83 416.60 493.51
  Q 418.25 496.36 420.50 498.73
  Q 428.98 507.66 435.86 513.79
  Q 438.41 516.05 443.86 518.70"
/>
<path stroke="#96999e" vector-effect="non-scaling-stroke" d="
  M 247.16 330.79
  A 16.49 16.49 0.0 0 0 230.67 314.30
  A 16.49 16.49 0.0 0 0 214.18 330.79
  A 16.49 16.49 0.0 0 0 230.67 347.28
  A 16.49 16.49 0.0 0 0 247.16 330.79"
/>
<path stroke="#29201f" vector-effect="non-scaling-stroke" d="
  M 149.03 536.17
  A 37.68 37.68 0.0 0 0 111.35 498.49
  A 37.68 37.68 0.0 0 0 73.67 536.17
  A 37.68 37.68 0.0 0 0 111.35 573.85
  A 37.68 37.68 0.0 0 0 149.03 536.17"
/>
<path stroke="#161a1f" vector-effect="non-scaling-stroke" d="
  M 112.3800 557.2673
  A 20.96 20.53 86.8 0 0 131.7080 535.1940
  A 20.96 20.53 86.8 0 0 110.0400 515.4127
  A 20.96 20.53 86.8 0 0 90.7120 537.4860
  A 20.96 20.53 86.8 0 0 112.3800 557.2673"
/>
</g>
<path fill="#ffffff" d="
  M 0.00 0.00
  L 1366.00 0.00
  L 1366.00 765.00
  L 0.00 765.00
  L 0.00 0.00
  Z
  M 1031.27 165.00
  Q 1030.83 164.39 1030.30 164.07
  Q 1029.69 163.71 1029.61 163.49
  Q 1029.45 163.03 1029.99 162.49
  Q 1043.66 162.78 1051.00 162.66
  Q 1079.07 162.20 1118.49 162.09
  Q 1160.91 161.97 1235.49 161.22
  C 1270.82 160.87 1306.55 161.08 1344.26 160.99
  C 1354.95 160.97 1360.49 155.55 1360.48 144.94
  Q 1360.43 105.58 1360.45 66.82
  C 1360.46 59.77 1358.17 54.55 1350.88 52.63
  Q 1349.47 52.26 1348.10 51.85
  Q 1335.92 48.22 1324.25 48.65
  A 1.60 1.59 -5.7 0 1 1322.62 47.32
  C 1320.95 37.51 1314.86 28.70 1308.05 21.91
  C 1304.73 18.59 1301.00 14.40 1296.57 12.72
  Q 1286.16 8.77 1274.72 5.03
  Q 1268.29 2.93 1262.22 3.85
  Q 1252.84 5.27 1244.09 7.68
  Q 1241.35 8.44 1238.91 10.05
  Q 1232.01 14.59 1225.37 19.18
  C 1221.47 21.87 1218.15 25.15 1216.18 29.64
  Q 1211.91 39.40 1208.35 48.64
  C 1206.90 52.43 1202.34 55.18 1198.83 56.75
  Q 1196.47 57.81 1192.76 57.81
  Q 1071.36 57.63 941.64 57.82
  Q 935.27 57.83 927.72 59.59
  Q 925.31 60.15 924.49 60.16
  Q 913.97 60.39 902.50 60.35
  Q 861.85 60.18 817.75 60.43
  A 2.09 2.08 -12.9 0 1 815.85 59.24
  C 813.89 55.11 812.33 51.17 808.92 47.80
  Q 799.77 38.75 786.99 36.26
  Q 766.06 32.18 744.75 27.70
  Q 740.74 26.86 728.44 25.42
  C 717.45 24.13 706.02 24.15 694.96 24.10
  Q 569.34 23.53 443.73 22.71
  C 439.07 22.68 434.01 22.32 429.44 21.33
  Q 424.21 20.20 418.99 18.76
  C 413.31 17.19 407.49 16.98 401.54 17.02
  Q 383.11 17.13 366.54 17.14
  C 364.03 17.14 361.42 17.56 359.35 19.16
  C 355.05 22.48 352.29 27.35 349.25 31.72
  A 3.65 3.64 18.5 0 1 346.11 33.28
  C 340.16 33.03 333.47 32.54 327.68 33.51
  C 320.13 34.76 316.31 42.76 313.21 48.75
  Q 306.72 61.28 299.26 74.68
  C 297.53 77.80 295.89 79.75 292.96 81.76
  Q 281.28 89.74 267.42 83.81
  C 261.91 81.46 256.32 79.81 250.66 77.65
  Q 237.55 72.65 225.50 68.18
  C 219.29 65.88 212.10 66.71 208.32 72.61
  Q 206.03 76.18 205.49 77.88
  Q 203.00 85.61 200.25 92.92
  C 198.62 97.26 197.12 105.18 201.33 108.62
  Q 205.05 111.64 210.81 114.67
  Q 219.92 119.44 228.61 123.68
  Q 235.56 127.07 242.96 130.72
  Q 249.67 134.03 255.08 136.96
  Q 261.25 140.31 267.17 143.15
  Q 276.82 147.78 287.86 153.64
  A 2.76 2.75 -69.3 0 1 289.24 156.71
  Q 288.53 159.67 288.32 162.78
  C 287.59 173.57 287.51 184.63 286.65 195.25
  C 286.10 202.07 284.96 209.54 285.10 216.64
  C 285.15 218.94 280.43 219.49 278.98 219.65
  Q 264.02 221.35 249.02 223.12
  Q 242.17 223.93 235.01 224.81
  Q 228.84 225.57 220.94 225.63
  Q 204.22 225.75 187.50 225.55
  Q 173.89 225.38 165.51 226.43
  Q 158.46 227.31 150.47 230.30
  Q 147.74 231.32 145.61 233.21
  Q 136.17 241.59 131.92 251.92
  Q 130.65 255.01 127.80 264.55
  C 127.25 266.38 126.97 268.94 126.94 270.85
  Q 126.60 295.04 123.67 317.74
  C 123.16 321.68 122.42 325.43 122.09 329.39
  Q 121.56 335.58 121.14 341.58
  Q 120.74 347.32 119.51 350.77
  Q 117.98 355.04 115.11 359.62
  Q 104.60 376.37 95.42 392.35
  C 90.91 400.19 87.68 408.40 83.76 416.55
  C 78.40 427.68 73.42 438.98 68.02 450.08
  Q 64.07 458.19 60.62 465.92
  Q 57.11 473.77 53.21 481.76
  Q 47.83 492.80 45.70 499.51
  Q 35.33 532.18 23.87 565.15
  C 23.04 567.54 22.28 570.58 21.98 573.07
  C 20.79 583.04 18.46 592.75 17.19 602.21
  Q 16.12 610.16 14.71 617.84
  Q 11.28 636.60 10.38 647.26
  Q 8.53 669.32 5.54 714.08
  C 5.19 719.20 5.99 726.07 10.36 729.42
  C 16.81 734.38 24.06 738.19 32.22 740.74
  Q 38.12 742.58 44.19 744.44
  C 48.11 745.63 51.76 747.18 55.95 748.30
  Q 60.41 749.48 65.95 751.54
  Q 76.01 755.27 92.12 757.00
  Q 104.38 758.31 116.89 760.15
  C 122.86 761.03 128.81 761.21 134.80 760.90
  Q 145.10 760.36 155.38 759.23
  C 165.49 758.12 175.88 758.70 185.64 758.14
  C 195.19 757.59 198.44 749.57 198.71 741.18
  C 199.07 730.03 201.04 719.14 201.78 708.43
  Q 202.83 693.22 204.69 677.91
  Q 206.08 666.53 206.91 658.03
  Q 208.72 639.58 211.23 621.00
  Q 211.59 618.36 213.14 612.47
  Q 214.25 608.26 214.86 604.02
  Q 216.12 595.35 218.22 587.24
  C 219.64 581.70 220.05 575.96 221.48 570.21
  Q 223.53 561.95 225.10 552.92
  Q 225.43 551.04 227.22 547.23
  Q 228.38 544.75 229.49 541.84
  Q 236.33 523.79 242.72 506.43
  C 245.57 498.68 248.86 493.28 254.57 487.44
  Q 267.79 473.88 279.33 461.98
  Q 281.36 459.89 284.09 458.32
  C 292.04 453.76 299.88 450.14 308.77 448.00
  Q 316.31 446.19 323.42 444.16
  Q 330.01 442.29 339.23 442.78
  C 348.13 443.25 358.35 443.67 364.39 449.85
  C 370.35 455.94 375.70 461.59 379.77 469.44
  Q 390.89 490.90 403.00 510.21
  Q 404.71 512.92 407.19 515.48
  C 415.87 524.45 423.30 531.59 433.90 536.69
  Q 442.55 540.85 450.58 544.56
  C 455.11 546.65 460.15 547.68 464.80 549.52
  C 470.73 551.86 477.18 553.48 483.46 554.04
  C 493.38 554.92 503.24 555.78 513.44 555.19
  Q 526.09 554.45 537.04 553.79
  Q 549.23 553.06 561.94 549.28
  Q 565.88 548.10 571.52 547.35
  C 578.29 546.45 584.67 544.56 591.30 543.52
  C 598.94 542.32 607.59 540.74 613.46 537.27
  C 623.04 531.61 633.10 526.46 640.72 518.15
  Q 646.75 511.56 653.12 504.85
  C 660.85 496.69 666.91 488.01 673.06 478.82
  Q 674.23 477.07 675.03 475.03
  C 677.87 467.84 681.58 460.52 683.93 453.03
  C 686.13 446.02 685.85 440.47 685.27 433.69
  Q 684.33 422.65 683.59 409.49
  Q 683.19 402.42 681.61 395.76
  Q 680.97 393.09 681.34 389.91
  Q 683.03 375.64 689.39 364.84
  A 2.24 2.21 8.8 0 1 690.83 363.80
  C 696.22 362.60 701.50 361.43 706.72 359.25
  Q 712.67 356.76 718.81 354.69
  C 723.86 352.99 730.09 350.27 733.34 345.83
  Q 738.13 339.27 740.33 333.45
  Q 742.39 328.00 743.40 318.72
  Q 744.65 307.24 746.62 296.04
  C 747.52 290.92 747.51 285.73 748.16 280.57
  Q 748.77 275.78 750.41 271.08
  Q 753.05 263.48 756.17 255.80
  C 757.37 252.83 759.47 250.82 761.98 248.95
  Q 771.40 241.91 780.53 235.82
  Q 785.68 232.39 789.76 232.29
  C 796.09 232.13 803.21 232.81 809.31 230.88
  C 816.98 228.46 818.62 222.39 819.96 215.28
  A 1.72 1.72 0.0 0 1 821.64 213.88
  Q 867.66 213.79 916.98 213.92
  C 924.70 213.94 934.27 214.44 937.60 205.73
  Q 938.58 203.15 939.70 200.79
  A 3.17 3.17 0.0 0 1 942.39 198.99
  Q 951.24 198.55 961.18 198.68
  A 2.98 2.98 0.0 0 1 964.09 201.28
  C 965.33 210.99 967.31 216.45 978.38 216.68
  Q 1000.14 217.14 1027.54 216.66
  C 1030.45 216.61 1037.05 215.68 1038.52 212.40
  Q 1040.47 208.05 1040.50 202.75
  Q 1040.61 188.25 1040.38 177.01
  Q 1040.19 167.57 1031.27 165.00
  Z"
/>
<path fill="#000000" d="
  M 1029.99 162.49
  L 1027.48 163.07
  A 0.37 0.37 0.0 0 0 1027.37 163.75
  Q 1028.96 164.71 1031.27 165.00
  Q 1040.19 167.57 1040.38 177.01
  Q 1040.61 188.25 1040.50 202.75
  Q 1040.47 208.05 1038.52 212.40
  C 1037.05 215.68 1030.45 216.61 1027.54 216.66
  Q 1000.14 217.14 978.38 216.68
  C 967.31 216.45 965.33 210.99 964.09 201.28
  A 2.98 2.98 0.0 0 0 961.18 198.68
  Q 951.24 198.55 942.39 198.99
  A 3.17 3.17 0.0 0 0 939.70 200.79
  Q 938.58 203.15 937.60 205.73
  C 934.27 214.44 924.70 213.94 916.98 213.92
  Q 867.66 213.79 821.64 213.88
  A 1.72 1.72 0.0 0 0 819.96 215.28
  C 818.62 222.39 816.98 228.46 809.31 230.88
  C 803.21 232.81 796.09 232.13 789.76 232.29
  Q 785.68 232.39 780.53 235.82
  Q 771.40 241.91 761.98 248.95
  C 759.47 250.82 757.37 252.83 756.17 255.80
  Q 753.05 263.48 750.41 271.08
  Q 748.77 275.78 748.16 280.57
  C 747.51 285.73 747.52 290.92 746.62 296.04
  Q 744.65 307.24 743.40 318.72
  Q 742.39 328.00 740.33 333.45
  Q 738.13 339.27 733.34 345.83
  C 730.09 350.27 723.86 352.99 718.81 354.69
  Q 712.67 356.76 706.72 359.25
  C 701.50 361.43 696.22 362.60 690.83 363.80
  A 2.24 2.21 8.8 0 0 689.39 364.84
  Q 683.03 375.64 681.34 389.91
  Q 680.97 393.09 681.61 395.76
  Q 683.19 402.42 683.59 409.49
  Q 684.33 422.65 685.27 433.69
  C 685.85 440.47 686.13 446.02 683.93 453.03
  C 681.58 460.52 677.87 467.84 675.03 475.03
  Q 674.23 477.07 673.06 478.82
  C 666.91 488.01 660.85 496.69 653.12 504.85
  Q 646.75 511.56 640.72 518.15
  C 633.10 526.46 623.04 531.61 613.46 537.27
  C 607.59 540.74 598.94 542.32 591.30 543.52
  C 584.67 544.56 578.29 546.45 571.52 547.35
  Q 565.88 548.10 561.94 549.28
  Q 549.23 553.06 537.04 553.79
  Q 526.09 554.45 513.44 555.19
  C 503.24 555.78 493.38 554.92 483.46 554.04
  C 477.18 553.48 470.73 551.86 464.80 549.52
  C 460.15 547.68 455.11 546.65 450.58 544.56
  Q 442.55 540.85 433.90 536.69
  C 423.30 531.59 415.87 524.45 407.19 515.48
  Q 404.71 512.92 403.00 510.21
  Q 390.89 490.90 379.77 469.44
  C 375.70 461.59 370.35 455.94 364.39 449.85
  C 358.35 443.67 348.13 443.25 339.23 442.78
  Q 330.01 442.29 323.42 444.16
  Q 316.31 446.19 308.77 448.00
  C 299.88 450.14 292.04 453.76 284.09 458.32
  Q 281.36 459.89 279.33 461.98
  Q 267.79 473.88 254.57 487.44
  C 248.86 493.28 245.57 498.68 242.72 506.43
  Q 236.33 523.79 229.49 541.84
  Q 228.38 544.75 227.22 547.23
  Q 225.43 551.04 225.10 552.92
  Q 223.53 561.95 221.48 570.21
  C 220.05 575.96 219.64 581.70 218.22 587.24
  Q 216.12 595.35 214.86 604.02
  Q 214.25 608.26 213.14 612.47
  Q 211.59 618.36 211.23 621.00
  Q 208.72 639.58 206.91 658.03
  Q 206.08 666.53 204.69 677.91
  Q 202.83 693.22 201.78 708.43
  C 201.04 719.14 199.07 730.03 198.71 741.18
  C 198.44 749.57 195.19 757.59 185.64 758.14
  C 175.88 758.70 165.49 758.12 155.38 759.23
  Q 145.10 760.36 134.80 760.90
  C 128.81 761.21 122.86 761.03 116.89 760.15
  Q 104.38 758.31 92.12 757.00
  Q 76.01 755.27 65.95 751.54
  Q 60.41 749.48 55.95 748.30
  C 51.76 747.18 48.11 745.63 44.19 744.44
  Q 38.12 742.58 32.22 740.74
  C 24.06 738.19 16.81 734.38 10.36 729.42
  C 5.99 726.07 5.19 719.20 5.54 714.08
  Q 8.53 669.32 10.38 647.26
  Q 11.28 636.60 14.71 617.84
  Q 16.12 610.16 17.19 602.21
  C 18.46 592.75 20.79 583.04 21.98 573.07
  C 22.28 570.58 23.04 567.54 23.87 565.15
  Q 35.33 532.18 45.70 499.51
  Q 47.83 492.80 53.21 481.76
  Q 57.11 473.77 60.62 465.92
  Q 64.07 458.19 68.02 450.08
  C 73.42 438.98 78.40 427.68 83.76 416.55
  C 87.68 408.40 90.91 400.19 95.42 392.35
  Q 104.60 376.37 115.11 359.62
  Q 117.98 355.04 119.51 350.77
  Q 120.74 347.32 121.14 341.58
  Q 121.56 335.58 122.09 329.39
  C 122.42 325.43 123.16 321.68 123.67 317.74
  Q 126.60 295.04 126.94 270.85
  C 126.97 268.94 127.25 266.38 127.80 264.55
  Q 130.65 255.01 131.92 251.92
  Q 136.17 241.59 145.61 233.21
  Q 147.74 231.32 150.47 230.30
  Q 158.46 227.31 165.51 226.43
  Q 173.89 225.38 187.50 225.55
  Q 204.22 225.75 220.94 225.63
  Q 228.84 225.57 235.01 224.81
  Q 242.17 223.93 249.02 223.12
  Q 264.02 221.35 278.98 219.65
  C 280.43 219.49 285.15 218.94 285.10 216.64
  C 284.96 209.54 286.10 202.07 286.65 195.25
  C 287.51 184.63 287.59 173.57 288.32 162.78
  Q 288.53 159.67 289.24 156.71
  A 2.76 2.75 -69.3 0 0 287.86 153.64
  Q 276.82 147.78 267.17 143.15
  Q 261.25 140.31 255.08 136.96
  Q 249.67 134.03 242.96 130.72
  Q 235.56 127.07 228.61 123.68
  Q 219.92 119.44 210.81 114.67
  Q 205.05 111.64 201.33 108.62
  C 197.12 105.18 198.62 97.26 200.25 92.92
  Q 203.00 85.61 205.49 77.88
  Q 206.03 76.18 208.32 72.61
  C 212.10 66.71 219.29 65.88 225.50 68.18
  Q 237.55 72.65 250.66 77.65
  C 256.32 79.81 261.91 81.46 267.42 83.81
  Q 281.28 89.74 292.96 81.76
  C 295.89 79.75 297.53 77.80 299.26 74.68
  Q 306.72 61.28 313.21 48.75
  C 316.31 42.76 320.13 34.76 327.68 33.51
  C 333.47 32.54 340.16 33.03 346.11 33.28
  A 3.65 3.64 18.5 0 0 349.25 31.72
  C 352.29 27.35 355.05 22.48 359.35 19.16
  C 361.42 17.56 364.03 17.14 366.54 17.14
  Q 383.11 17.13 401.54 17.02
  C 407.49 16.98 413.31 17.19 418.99 18.76
  Q 424.21 20.20 429.44 21.33
  C 434.01 22.32 439.07 22.68 443.73 22.71
  Q 569.34 23.53 694.96 24.10
  C 706.02 24.15 717.45 24.13 728.44 25.42
  Q 740.74 26.86 744.75 27.70
  Q 766.06 32.18 786.99 36.26
  Q 799.77 38.75 808.92 47.80
  C 812.33 51.17 813.89 55.11 815.85 59.24
  A 2.09 2.08 -12.9 0 0 817.75 60.43
  Q 861.85 60.18 902.50 60.35
  Q 913.97 60.39 924.49 60.16
  Q 925.31 60.15 927.72 59.59
  Q 935.27 57.83 941.64 57.82
  Q 1071.36 57.63 1192.76 57.81
  Q 1196.47 57.81 1198.83 56.75
  C 1202.34 55.18 1206.90 52.43 1208.35 48.64
  Q 1211.91 39.40 1216.18 29.64
  C 1218.15 25.15 1221.47 21.87 1225.37 19.18
  Q 1232.01 14.59 1238.91 10.05
  Q 1241.35 8.44 1244.09 7.68
  Q 1252.84 5.27 1262.22 3.85
  Q 1268.29 2.93 1274.72 5.03
  Q 1286.16 8.77 1296.57 12.72
  C 1301.00 14.40 1304.73 18.59 1308.05 21.91
  C 1314.86 28.70 1320.95 37.51 1322.62 47.32
  A 1.60 1.59 -5.7 0 0 1324.25 48.65
  Q 1335.92 48.22 1348.10 51.85
  Q 1349.47 52.26 1350.88 52.63
  C 1358.17 54.55 1360.46 59.77 1360.45 66.82
  Q 1360.43 105.58 1360.48 144.94
  C 1360.49 155.55 1354.95 160.97 1344.26 160.99
  C 1306.55 161.08 1270.82 160.87 1235.49 161.22
  Q 1160.91 161.97 1118.49 162.09
  Q 1079.07 162.20 1051.00 162.66
  Q 1043.66 162.78 1029.99 162.49
  Z
  M 1233.92 48.57
  C 1252.91 49.14 1272.05 48.88 1290.81 48.58
  Q 1295.13 48.51 1299.42 48.11
  A 1.40 1.39 -17.7 0 0 1300.50 46.02
  Q 1297.08 40.11 1291.15 34.31
  Q 1288.92 32.12 1286.03 31.01
  Q 1279.26 28.40 1272.69 25.96
  C 1269.55 24.80 1265.35 23.63 1262.03 24.43
  C 1258.98 25.16 1255.93 25.07 1253.02 26.29
  Q 1240.73 31.40 1233.92 40.64
  Q 1232.18 43.01 1231.08 45.78
  Q 1230.90 46.23 1231.03 46.69
  Q 1231.58 48.50 1233.92 48.57
  Z
  M 424.63 143.09
  C 425.03 128.35 425.10 113.54 424.38 98.91
  C 424.14 94.00 424.39 89.06 424.16 84.23
  C 423.89 78.82 422.21 75.53 418.81 70.86
  C 412.11 61.63 407.39 54.06 401.34 45.90
  C 397.84 41.19 396.00 38.26 390.51 38.01
  Q 384.59 37.75 376.00 37.89
  C 373.44 37.93 370.78 37.98 368.98 40.16
  Q 363.19 47.19 362.05 53.33
  C 361.34 57.11 361.97 62.92 361.81 67.47
  C 361.01 90.12 361.35 112.57 358.54 135.05
  Q 358.33 136.74 358.82 138.17
  A 1.50 1.48 78.2 0 0 360.33 139.17
  C 368.28 138.60 376.59 139.22 384.31 139.23
  Q 398.11 139.24 411.43 139.18
  C 415.80 139.16 419.41 141.58 422.88 143.98
  A 1.12 1.11 -71.9 0 0 424.63 143.09
  Z
  M 468.37 47.03
  L 468.37 45.75
  Q 468.37 45.11 467.74 45.05
  Q 464.54 44.74 461.16 44.90
  C 460.08 44.96 459.16 44.58 458.04 44.61
  Q 446.71 44.85 434.69 43.95
  C 431.94 43.74 429.18 43.11 426.50 42.58
  Q 425.70 42.42 425.47 42.65
  A 1.22 1.18 49.5 0 0 425.38 44.20
  Q 428.79 48.95 432.35 53.67
  C 434.49 56.52 436.66 58.29 440.47 57.94
  Q 450.74 57.01 464.25 56.30
  Q 465.25 56.25 466.26 55.94
  Q 467.35 55.62 468.27 55.58
  Q 473.91 55.31 479.82 55.35
  C 480.76 55.36 481.65 55.80 482.51 55.56
  Q 483.52 55.29 484.49 55.32
  Q 496.49 55.74 508.52 55.60
  Q 508.87 55.60 509.14 55.82
  Q 509.28 55.92 509.45 55.91
  C 516.97 55.26 524.98 56.01 532.19 55.55
  Q 543.99 54.78 550.25 55.04
  Q 562.55 55.56 574.84 56.05
  C 575.54 56.08 576.24 55.79 576.99 55.83
  Q 582.75 56.13 588.51 56.31
  Q 590.22 56.37 591.99 56.22
  Q 593.73 56.08 595.64 56.23
  Q 600.60 56.61 606.27 56.25
  Q 613.93 55.76 616.77 55.70
  Q 624.31 55.52 631.75 55.64
  C 633.75 55.67 635.57 56.25 637.66 55.96
  C 639.52 55.69 641.25 56.15 643.10 56.13
  C 648.54 56.08 653.86 55.91 659.50 56.35
  Q 662.79 56.60 666.02 56.63
  Q 666.53 56.63 666.93 56.96
  Q 667.30 57.27 667.76 57.10
  Q 669.01 56.62 670.25 56.65
  Q 681.51 56.91 692.76 58.21
  C 697.62 58.77 700.03 61.92 702.78 65.40
  A 2.34 2.34 0.0 0 0 704.96 66.26
  Q 706.96 65.96 708.83 66.00
  Q 740.70 66.55 774.99 65.80
  Q 784.31 65.60 793.29 66.38
  Q 793.87 66.43 794.18 65.95
  Q 795.35 64.13 793.70 62.59
  Q 791.93 60.94 789.29 59.64
  C 784.98 57.52 780.27 56.69 775.82 55.39
  C 770.43 53.82 764.65 52.99 759.05 51.98
  Q 755.98 51.42 750.53 50.03
  Q 741.56 47.72 732.30 46.99
  C 727.86 46.64 723.48 45.95 719.09 45.24
  C 712.45 44.16 705.43 44.23 698.74 44.42
  Q 687.52 44.72 675.50 45.15
  Q 665.88 45.48 655.48 45.71
  Q 644.97 45.94 635.98 46.32
  Q 626.25 46.73 616.49 46.56
  Q 590.02 46.10 575.25 46.40
  Q 566.53 46.59 557.82 46.66
  Q 557.54 46.67 543.70 46.97
  Q 534.83 47.17 524.92 46.41
  Q 520.51 46.07 505.29 46.24
  Q 498.53 46.32 490.56 45.41
  A 1.02 1.00 -68.6 0 0 489.62 45.83
  Q 489.15 46.50 489.71 47.11
  A 0.82 0.82 0.0 0 1 489.18 48.48
  L 481.88 49.10
  Q 481.13 49.16 480.45 48.81
  Q 479.80 48.48 479.07 48.55
  Q 473.79 49.09 468.83 47.64
  A 0.63 0.63 0.0 0 1 468.37 47.03
  Z
  M 471.85 46.15
  Q 471.78 46.32 472.05 46.47
  Q 472.33 46.62 472.65 46.62
  L 475.89 46.62
  Q 476.15 46.62 476.29 46.84
  Q 476.40 47.00 476.38 47.24
  Q 476.36 47.87 476.99 47.87
  L 486.49 47.87
  Q 487.01 47.87 486.92 47.37
  Q 486.84 46.91 487.26 46.76
  Q 488.17 46.42 489.07 45.95
  Q 489.90 45.53 488.97 45.52
  C 487.69 45.50 486.71 44.83 485.34 44.78
  Q 477.48 44.53 469.77 44.65
  Q 468.75 44.67 469.67 45.11
  Q 470.56 45.54 471.50 45.60
  Q 472.05 45.64 471.85 46.15
  Z
  M 222.69 90.44
  Q 221.48 91.09 221.14 92.47
  Q 220.35 95.78 223.50 97.54
  Q 233.51 103.12 243.38 107.97
  Q 264.62 118.40 283.01 128.01
  C 290.42 131.89 298.98 134.90 305.30 140.48
  Q 309.49 144.18 309.28 150.05
  Q 308.46 172.04 306.91 196.25
  Q 306.58 201.31 306.54 207.42
  A 1.61 1.60 79.8 0 0 308.71 208.93
  Q 312.12 207.65 314.74 204.65
  Q 319.01 199.77 323.30 195.09
  Q 328.12 189.81 329.64 183.99
  C 330.77 179.62 331.57 175.23 333.04 171.01
  Q 335.17 164.92 335.93 158.00
  Q 338.25 136.97 339.63 115.24
  Q 340.29 104.81 340.43 95.21
  Q 340.69 76.65 340.79 57.46
  Q 340.80 55.57 339.88 53.72
  A 2.38 2.37 -33.2 0 0 336.23 52.96
  Q 333.59 55.16 331.84 58.45
  C 329.21 63.40 326.21 68.00 323.64 72.93
  Q 318.14 83.49 314.28 89.91
  Q 311.07 95.24 306.72 97.78
  C 301.39 100.88 295.62 104.81 289.93 106.26
  Q 276.60 109.65 265.29 105.16
  Q 244.60 96.95 224.33 90.30
  A 2.10 2.10 0.0 0 0 222.69 90.44
  Z
  M 1188.00 141.84
  Q 1197.82 141.91 1206.67 141.74
  Q 1223.75 141.39 1225.33 141.38
  C 1242.05 141.28 1258.81 140.85 1276.00 140.90
  Q 1299.98 140.97 1323.52 140.00
  Q 1330.41 139.72 1337.47 139.89
  A 2.47 2.46 89.7 0 0 1339.99 137.34
  Q 1339.83 132.24 1339.86 127.25
  Q 1340.05 100.61 1339.90 74.50
  C 1339.88 70.26 1334.01 69.74 1330.50 69.72
  Q 1284.63 69.48 1229.25 69.49
  C 1224.55 69.49 1218.47 69.16 1214.28 71.73
  Q 1208.44 75.32 1202.64 77.31
  C 1197.74 79.00 1191.90 78.61 1186.50 78.62
  Q 1072.54 78.80 952.16 78.72
  C 948.65 78.72 945.01 79.02 941.50 79.00
  Q 938.90 78.99 938.88 81.59
  Q 938.68 107.61 938.94 138.21
  C 938.97 142.22 940.89 143.19 944.44 143.19
  C 958.31 143.20 971.82 142.73 985.99 142.65
  C 996.47 142.59 1007.18 142.12 1017.38 142.11
  Q 1063.02 142.05 1107.50 142.12
  C 1134.02 142.16 1159.98 141.65 1188.00 141.84
  Z
  M 680.77 78.07
  L 676.93 78.11
  A 1.53 1.53 0.0 0 0 675.41 79.65
  L 675.87 132.50
  A 8.16 2.20 89.5 0 0 678.14 140.64
  L 680.64 140.62
  A 8.16 2.20 89.5 0 0 682.77 132.44
  L 682.31 79.59
  A 1.53 1.53 0.0 0 0 680.77 78.07
  Z
  M 486.36 133.47
  Q 487.14 133.15 487.20 132.30
  Q 487.36 130.11 487.24 128.38
  Q 486.06 111.89 486.21 96.05
  Q 486.24 93.29 486.70 90.54
  C 487.18 87.63 489.37 78.84 484.25 78.75
  Q 466.39 78.40 448.90 79.10
  C 446.30 79.20 444.64 81.24 444.36 83.75
  C 444.11 86.00 443.84 88.15 443.92 90.42
  Q 444.34 102.71 444.64 115.00
  C 444.71 117.78 445.56 121.00 445.58 124.03
  C 445.62 129.98 445.94 135.97 445.89 141.89
  Q 445.70 161.48 445.37 181.90
  C 445.23 190.25 445.97 198.25 446.55 206.49
  Q 447.22 215.90 447.25 224.53
  Q 447.29 237.26 447.49 248.61
  C 447.53 250.38 448.15 252.47 448.13 254.01
  Q 448.06 261.41 447.58 268.16
  C 447.32 271.84 448.68 274.37 452.27 275.29
  C 455.93 276.23 459.71 276.95 463.55 276.96
  C 469.88 276.96 476.97 277.37 482.85 275.16
  C 484.92 274.38 487.10 274.75 489.26 274.15
  Q 490.32 273.85 490.46 272.76
  L 490.55 272.01
  A 0.85 0.85 0.0 0 0 489.31 271.15
  Q 484.65 273.61 480.06 272.47
  C 473.65 270.88 468.14 270.95 461.91 270.21
  C 456.50 269.57 453.88 265.47 453.67 260.30
  Q 453.02 244.12 456.91 229.12
  C 458.42 223.28 461.15 217.68 463.38 212.03
  C 464.11 210.19 465.47 206.66 467.48 206.02
  C 471.73 204.67 476.30 208.00 478.46 211.39
  Q 482.24 217.34 484.72 223.24
  Q 485.29 224.59 486.61 225.32
  Q 487.30 225.69 486.90 225.02
  C 484.77 221.45 486.17 218.73 486.14 215.03
  Q 485.94 191.36 485.97 167.29
  Q 485.97 163.22 485.33 158.69
  A 0.77 0.76 67.0 0 0 484.11 158.19
  C 480.60 160.90 475.78 162.11 471.35 162.00
  Q 468.01 161.91 464.34 162.09
  C 449.64 162.79 451.43 145.63 451.49 136.46
  C 451.52 131.74 452.86 127.42 453.71 122.93
  C 454.49 118.84 455.91 114.89 457.29 110.94
  Q 459.30 105.18 464.49 101.41
  Q 466.84 99.70 469.11 100.20
  Q 472.40 100.93 474.04 103.27
  Q 479.35 110.86 482.48 122.63
  C 483.04 124.73 484.32 126.31 484.43 128.57
  Q 484.55 130.80 485.24 132.91
  Q 485.53 133.80 486.36 133.47
  Z
  M 917.91 86.02
  A 5.20 5.20 0.0 0 0 912.71 80.82
  L 820.87 80.82
  A 5.20 5.20 0.0 0 0 815.67 86.02
  L 815.67 137.98
  A 5.20 5.20 0.0 0 0 820.87 143.18
  L 912.71 143.18
  A 5.20 5.20 0.0 0 0 917.91 137.98
  L 917.91 86.02
  Z
  M 660.97 93.71
  Q 660.91 92.27 660.74 90.99
  A 1.27 1.27 0.0 0 0 658.68 90.17
  Q 654.80 93.31 651.16 94.67
  C 644.97 96.99 638.13 98.01 631.38 98.05
  C 625.61 98.08 620.06 99.04 614.40 99.19
  Q 603.01 99.51 592.28 100.32
  C 588.99 100.56 585.38 99.92 581.98 99.83
  Q 562.45 99.30 543.09 99.14
  C 539.85 99.12 536.02 98.51 533.21 97.42
  Q 528.87 95.72 523.30 92.79
  C 518.51 90.27 515.30 86.66 511.84 82.80
  A 1.16 1.16 0.0 0 0 509.90 83.15
  C 509.08 85.24 508.44 87.33 508.34 89.69
  Q 507.56 109.18 507.93 119.00
  Q 508.39 131.25 508.41 143.50
  Q 508.41 144.72 509.45 145.14
  A 1.38 1.36 -54.3 0 0 510.87 144.90
  C 519.07 137.70 526.51 131.23 537.98 131.12
  Q 552.63 130.99 566.75 130.84
  C 573.61 130.76 580.48 129.55 587.15 129.45
  Q 611.21 129.08 640.14 129.50
  Q 643.55 129.55 646.10 130.24
  Q 650.85 131.52 655.54 133.99
  C 657.63 135.09 662.50 137.27 662.65 132.94
  Q 662.91 125.33 662.33 121.64
  C 661.00 113.24 661.48 104.78 661.09 96.50
  Q 661.02 95.09 660.97 93.71
  Z
  M 793.90 139.48
  L 794.57 90.68
  A 3.09 3.09 0.0 0 0 791.78 87.56
  Q 786.75 87.07 781.66 87.04
  Q 758.92 86.89 730.22 87.15
  Q 717.31 87.27 705.26 86.50
  A 1.69 1.68 0.3 0 0 703.47 88.27
  C 703.94 97.26 703.45 105.95 703.53 114.97
  Q 703.64 126.88 703.88 139.32
  Q 703.96 143.08 707.72 143.15
  Q 715.05 143.28 722.25 143.27
  Q 748.02 143.26 779.97 143.13
  Q 784.66 143.11 791.19 142.45
  A 3.02 3.02 0.0 0 0 793.90 139.48
  Z
  M 654.77 152.50
  A 1.36 1.35 -52.6 0 0 654.66 151.64
  C 652.78 147.75 647.55 146.31 643.54 144.96
  Q 639.94 143.74 636.47 143.70
  Q 630.09 143.63 624.95 144.18
  Q 619.13 144.80 613.91 144.90
  Q 584.23 145.46 554.62 145.49
  C 549.26 145.50 543.88 146.07 538.50 146.51
  C 533.45 146.93 528.98 150.04 525.55 153.41
  C 521.98 156.91 526.68 161.12 529.41 163.30
  Q 531.35 164.85 534.49 165.99
  Q 538.61 167.49 540.25 167.51
  Q 553.75 167.62 567.26 167.73
  C 572.46 167.77 578.50 168.93 583.27 168.44
  Q 588.82 167.86 593.75 167.79
  Q 606.06 167.62 618.12 167.43
  Q 620.63 167.39 623.31 167.27
  Q 625.92 167.16 628.62 166.65
  Q 632.51 165.92 636.20 165.27
  Q 645.42 163.63 651.50 157.22
  C 652.81 155.83 654.38 154.47 654.77 152.50
  Z
  M 224.74 357.23
  Q 226.23 358.00 227.72 358.69
  C 234.00 361.58 238.76 366.75 242.89 372.55
  Q 247.53 379.06 252.32 385.67
  Q 257.34 392.59 258.96 397.94
  Q 260.92 404.38 263.15 410.21
  C 266.70 419.49 268.86 429.28 270.28 438.87
  Q 270.65 441.35 272.97 440.38
  C 280.16 437.39 286.85 433.12 293.53 429.56
  Q 306.60 422.59 319.44 415.71
  C 323.91 413.32 328.50 411.56 333.22 409.96
  Q 341.95 406.99 351.34 404.29
  Q 359.88 401.84 368.94 398.67
  Q 385.54 392.85 403.39 389.95
  C 411.03 388.71 418.39 386.63 426.01 385.60
  C 434.76 384.40 440.71 381.60 448.30 377.24
  Q 458.02 371.66 472.83 364.80
  C 478.45 362.20 484.32 360.23 489.91 357.69
  Q 496.16 354.85 501.33 353.46
  C 512.61 350.41 524.45 349.04 536.05 347.99
  C 544.66 347.22 553.03 347.64 561.46 347.43
  C 576.21 347.06 593.44 347.92 605.80 347.35
  Q 614.88 346.93 624.58 346.75
  C 635.61 346.55 647.96 344.88 659.87 344.96
  C 665.97 345.00 672.01 344.30 678.14 344.00
  C 689.74 343.44 700.98 340.33 711.54 335.42
  C 717.49 332.65 721.87 328.09 722.39 321.45
  C 722.79 316.30 723.12 311.20 723.92 306.21
  Q 725.81 294.43 727.63 277.40
  Q 728.15 272.54 730.43 265.91
  Q 733.75 256.26 737.33 247.68
  C 738.92 243.87 741.40 238.24 745.00 235.68
  Q 755.59 228.15 766.21 220.38
  C 770.12 217.53 768.09 214.75 768.06 210.95
  Q 767.91 195.46 767.91 181.14
  Q 767.90 172.19 771.65 165.11
  A 1.25 1.25 0.0 0 0 770.55 163.27
  Q 748.82 163.29 730.05 163.17
  C 722.70 163.12 715.59 163.56 708.66 163.39
  Q 703.51 163.27 703.67 168.37
  C 703.98 178.41 704.47 188.20 703.98 198.42
  Q 703.47 208.80 703.55 218.90
  Q 703.79 249.15 703.84 279.24
  Q 703.85 284.43 702.82 289.17
  C 701.11 297.08 692.93 298.46 686.00 298.47
  Q 572.77 298.76 458.50 298.47
  Q 452.22 298.46 449.47 297.16
  Q 442.32 293.80 434.68 290.46
  C 427.94 287.51 423.94 284.08 424.93 276.21
  C 425.34 273.01 425.68 269.90 425.68 266.66
  Q 425.64 231.78 425.43 197.76
  Q 425.38 189.45 425.12 179.50
  Q 425.04 176.35 422.86 173.88
  Q 417.08 167.34 412.28 163.20
  Q 407.76 159.30 402.94 159.25
  Q 382.50 159.03 359.80 159.34
  A 3.76 3.75 -84.4 0 0 356.18 162.32
  C 355.16 167.11 353.69 171.96 352.57 176.83
  Q 350.31 186.56 347.52 195.28
  Q 345.99 200.07 342.76 203.80
  Q 338.24 209.01 333.87 214.35
  C 330.41 218.58 326.20 222.27 321.51 224.94
  Q 310.11 231.41 297.52 236.69
  Q 293.94 238.20 290.41 238.70
  Q 281.76 239.94 271.92 241.33
  Q 261.51 242.79 250.39 243.50
  Q 244.51 243.88 240.01 244.45
  C 234.46 245.15 229.09 246.18 223.58 246.39
  C 207.24 247.02 190.84 246.86 174.66 246.68
  C 170.19 246.64 161.13 246.74 157.85 250.18
  Q 149.86 258.56 148.36 268.95
  Q 147.12 277.49 146.54 296.07
  C 146.28 304.34 144.93 312.26 143.95 320.47
  C 143.24 326.41 143.26 332.19 142.50 338.01
  A 1.67 1.67 0.0 0 0 144.37 339.88
  L 157.05 338.25
  A 14.63 14.47 -44.2 0 1 160.96 338.28
  Q 168.64 339.36 176.91 340.44
  C 182.87 341.22 188.46 342.63 194.13 343.79
  Q 199.27 344.83 204.29 347.09
  Q 210.77 350.00 215.39 352.64
  Q 218.62 354.49 221.77 355.83
  Q 223.27 356.46 224.74 357.23
  Z
  M 964.19 175.63
  C 964.62 171.50 965.19 167.60 966.81 164.19
  A 0.91 0.91 0.0 0 0 965.97 162.90
  L 941.04 163.31
  A 1.89 1.88 -86.0 0 0 939.22 164.90
  C 938.86 167.25 938.21 175.69 940.21 177.53
  Q 941.08 178.33 942.37 178.35
  Q 952.40 178.51 961.58 178.09
  Q 963.95 177.98 964.19 175.63
  Z
  M 918.00 170.93
  C 917.72 166.13 917.25 163.70 911.81 163.66
  C 907.90 163.63 904.09 163.20 900.17 163.21
  Q 874.82 163.30 846.16 163.14
  C 837.68 163.09 828.49 163.56 819.73 163.31
  Q 818.96 163.29 818.24 163.53
  A 1.52 1.52 0.0 0 0 817.27 165.40
  C 818.49 169.55 819.81 173.84 820.00 178.16
  Q 820.25 183.70 820.62 189.54
  C 820.86 193.32 825.90 193.25 828.53 193.24
  Q 862.31 193.05 893.52 193.00
  C 900.34 192.99 907.28 193.53 914.22 192.84
  Q 917.54 192.51 917.65 188.95
  Q 917.87 181.87 918.07 175.53
  Q 918.13 173.30 918.00 170.93
  Z
  M 508.29 170.13
  Q 507.58 190.61 508.15 209.61
  C 508.21 211.40 508.38 213.47 508.85 215.20
  Q 510.90 222.87 511.21 230.86
  C 511.37 234.96 512.37 239.10 513.13 243.22
  A 1.82 1.81 65.2 0 0 516.06 244.30
  C 521.82 239.64 527.22 235.97 534.58 234.36
  Q 543.60 232.39 555.47 231.57
  Q 564.83 230.92 575.61 230.95
  Q 597.51 231.01 615.15 230.98
  C 618.25 230.97 621.25 231.34 624.33 231.57
  C 628.53 231.89 632.51 232.88 636.71 233.09
  C 641.79 233.35 646.95 234.91 651.91 236.17
  Q 656.96 237.45 660.03 240.12
  Q 660.66 240.66 661.38 240.94
  Q 662.86 241.52 663.47 239.96
  Q 664.11 238.33 664.08 236.24
  Q 663.92 223.04 663.82 209.67
  C 663.75 199.76 662.73 189.77 662.31 179.76
  Q 662.14 175.79 662.39 172.03
  A 1.25 1.24 3.1 0 0 661.19 170.70
  C 658.18 170.60 652.41 174.46 649.70 176.00
  C 646.27 177.95 641.80 179.19 637.93 179.98
  Q 633.16 180.96 628.77 181.74
  Q 621.57 183.02 610.00 183.03
  Q 582.17 183.04 554.63 183.01
  C 547.12 183.00 540.49 182.29 533.16 180.74
  Q 523.52 178.71 517.85 172.84
  C 516.20 171.13 511.65 166.20 509.23 166.70
  A 0.94 0.92 88.3 0 0 508.50 167.49
  Q 508.34 168.76 508.29 170.13
  Z
  M 679.88 248.76
  Q 680.00 263.38 680.43 278.41
  A 0.48 0.47 0.7 0 0 680.89 278.87
  Q 681.75 278.92 682.14 278.10
  Q 682.67 277.00 682.72 276.00
  Q 683.11 268.88 683.05 261.32
  Q 682.91 241.72 682.12 220.95
  Q 682.05 219.06 680.16 219.15
  L 679.91 219.16
  Q 678.26 219.23 678.31 220.88
  Q 678.76 235.79 679.67 249.39
  Q 679.68 249.53 679.75 249.41
  Q 679.77 249.37 679.79 249.33
  Q 679.84 249.25 679.85 249.15
  Q 679.86 248.96 679.86 248.76
  Q 679.87 248.02 679.88 248.76
  Z
  M 531.66 256.50
  C 535.07 258.01 538.81 259.40 542.57 259.29
  C 549.29 259.10 555.57 258.80 562.47 259.60
  Q 577.14 261.30 589.76 262.17
  C 593.11 262.41 596.36 262.58 599.76 262.36
  C 608.83 261.79 617.82 261.05 626.86 260.62
  Q 638.20 260.09 649.80 257.81
  Q 651.00 257.58 651.93 256.71
  A 1.35 1.35 0.0 0 0 652.36 255.70
  Q 652.34 253.13 649.84 251.96
  C 647.73 250.97 645.61 250.13 643.25 249.70
  C 639.40 249.00 635.62 247.81 631.79 247.66
  C 622.06 247.28 611.85 247.66 602.11 246.32
  Q 592.83 245.05 584.86 246.27
  Q 579.09 247.15 573.91 247.32
  Q 559.95 247.79 546.26 247.90
  C 543.82 247.92 541.86 248.78 539.52 249.06
  C 536.83 249.38 531.21 251.49 530.64 254.58
  A 1.77 1.76 -73.0 0 0 531.66 256.50
  Z
  M 683.23 258.42
  C 682.85 259.97 683.22 262.68 683.23 264.43
  Q 683.23 264.48 683.29 264.50
  Q 683.33 264.51 683.38 264.51
  Q 683.48 264.49 683.49 264.39
  Q 683.66 261.54 683.51 258.45
  Q 683.47 257.44 683.23 258.42
  Z
  M 249.11 436.63
  Q 248.27 429.28 247.46 427.28
  Q 245.24 421.77 243.60 416.07
  C 242.57 412.49 241.21 409.19 239.87 405.72
  Q 238.42 401.99 235.95 398.50
  C 230.15 390.31 225.78 381.02 216.74 376.10
  Q 201.21 367.63 189.15 363.37
  Q 186.31 362.37 183.84 362.08
  Q 176.27 361.18 168.32 359.46
  Q 161.09 357.89 156.74 358.30
  Q 152.04 358.76 145.51 360.15
  C 141.02 361.11 138.08 361.50 136.03 365.00
  Q 128.61 377.64 120.31 391.48
  Q 117.90 395.48 115.22 399.67
  Q 112.60 403.75 110.67 408.08
  Q 105.58 419.49 103.75 422.89
  Q 99.93 429.99 97.35 436.36
  C 96.08 439.50 94.39 442.24 93.03 445.32
  Q 91.63 448.47 89.73 452.01
  Q 88.20 454.85 86.59 459.04
  C 83.21 467.76 77.99 476.33 74.22 485.42
  Q 70.38 494.67 66.27 503.14
  C 64.57 506.65 64.28 510.73 62.68 514.42
  C 61.01 518.27 60.37 522.41 58.67 526.27
  C 56.75 530.65 55.87 535.18 54.13 539.60
  Q 52.08 544.81 51.39 547.39
  Q 50.37 551.15 49.05 554.56
  C 47.16 559.45 46.71 564.57 44.30 569.32
  C 42.70 572.45 42.44 575.83 42.12 579.26
  Q 41.77 582.94 40.97 586.67
  Q 39.05 595.58 37.83 604.46
  C 36.63 613.26 34.29 622.62 33.32 631.89
  C 33.00 635.05 31.97 638.14 31.56 641.08
  Q 29.54 655.89 29.07 671.24
  C 28.82 679.07 28.76 686.79 27.73 694.31
  Q 26.61 702.49 26.07 710.86
  Q 25.78 715.31 29.48 717.08
  Q 35.71 720.06 42.24 722.08
  C 54.28 725.82 66.21 729.99 78.00 733.95
  Q 82.17 735.35 90.73 736.06
  C 101.31 736.92 110.37 738.54 120.03 739.91
  Q 129.42 741.24 135.39 740.63
  Q 155.55 738.59 174.56 738.92
  Q 178.02 738.97 178.56 735.31
  Q 179.94 726.02 180.20 717.90
  Q 180.48 709.19 181.49 701.51
  C 183.02 689.87 184.57 678.23 185.27 666.34
  Q 185.74 658.44 186.58 652.17
  Q 187.28 647.03 188.02 641.64
  C 189.13 633.57 189.26 625.34 190.74 617.85
  Q 192.83 607.23 195.75 593.49
  C 196.44 590.22 197.62 587.01 197.97 583.73
  Q 198.38 579.92 199.29 576.37
  Q 202.11 565.29 203.84 554.15
  C 204.51 549.81 206.44 546.09 207.59 541.89
  Q 208.77 537.54 210.62 532.74
  Q 217.31 515.30 224.01 497.91
  C 227.70 488.34 231.24 481.54 238.26 474.63
  C 243.05 469.92 247.38 464.68 252.22 459.98
  C 253.60 458.64 254.04 457.22 253.37 455.27
  Q 250.21 446.18 249.11 436.63
  Z
  M 443.86 518.70
  Q 454.20 523.71 458.02 525.10
  Q 465.78 527.91 473.72 530.82
  Q 480.50 533.30 483.76 533.47
  C 492.56 533.93 501.82 535.93 510.76 535.18
  Q 524.95 534.00 537.40 533.10
  C 541.22 532.82 545.73 532.05 548.75 531.31
  Q 563.03 527.83 577.05 525.33
  Q 580.05 524.80 583.37 523.95
  Q 586.72 523.10 591.45 522.57
  C 599.22 521.69 605.44 517.83 612.91 513.45
  Q 618.39 510.24 622.23 506.76
  C 633.71 496.34 643.72 484.46 652.63 472.36
  Q 655.44 468.56 657.37 463.66
  Q 660.15 456.60 663.00 449.40
  Q 664.76 444.97 664.62 440.87
  Q 664.30 431.32 663.84 421.75
  Q 663.64 417.68 662.87 412.80
  Q 662.23 408.75 658.45 402.86
  Q 655.22 397.81 651.72 392.65
  Q 643.49 380.52 631.31 372.94
  C 626.31 369.82 620.62 367.12 615.37 367.04
  Q 596.08 366.76 576.42 367.60
  A 1.45 1.44 6.0 0 0 575.09 368.67
  C 573.45 374.83 570.24 377.56 565.58 381.65
  Q 555.83 390.20 546.39 397.27
  Q 541.82 400.69 539.22 404.89
  Q 531.99 416.55 525.24 430.30
  Q 523.34 434.16 523.23 437.78
  Q 522.97 446.91 522.99 458.64
  Q 523.00 460.30 523.40 461.84
  C 525.96 471.49 529.80 482.19 535.87 490.78
  C 539.49 495.92 543.56 498.29 549.63 499.46
  Q 552.56 500.03 555.40 500.95
  C 560.68 502.66 567.45 501.92 572.96 501.20
  C 583.20 499.86 592.76 505.21 588.04 517.06
  C 586.59 520.72 579.88 521.56 576.44 521.70
  Q 568.94 521.99 561.76 522.25
  C 552.29 522.59 543.40 519.33 534.53 516.26
  C 530.31 514.80 526.30 512.37 523.65 508.79
  Q 520.06 503.94 516.28 498.97
  C 511.05 492.10 508.82 483.23 505.87 475.24
  C 503.61 469.09 502.63 463.17 502.53 456.69
  Q 502.34 443.97 503.32 432.51
  Q 503.80 426.92 506.60 420.93
  C 509.57 414.59 510.53 406.32 505.86 400.49
  Q 504.15 398.35 501.73 397.88
  Q 496.87 396.96 491.14 395.92
  Q 488.98 395.53 486.80 395.84
  Q 475.09 397.53 462.75 399.36
  C 459.37 399.86 456.68 397.85 452.95 399.69
  C 443.06 404.54 433.96 409.26 424.86 415.82
  C 420.85 418.71 412.48 425.97 411.48 431.26
  C 410.25 437.69 408.37 444.24 408.20 450.48
  C 408.03 456.74 408.52 462.97 406.12 468.83
  C 405.05 471.46 405.23 473.99 406.64 476.40
  Q 411.57 484.83 416.60 493.51
  Q 418.25 496.36 420.50 498.73
  Q 428.98 507.66 435.86 513.79
  Q 438.41 516.05 443.86 518.70
  Z"
/>
<path fill="#2c333d" d="
  M 1290.81 48.58
  C 1272.05 48.88 1252.91 49.14 1233.92 48.57
  Q 1231.58 48.50 1231.03 46.69
  Q 1230.90 46.23 1231.08 45.78
  Q 1232.18 43.01 1233.92 40.64
  Q 1240.73 31.40 1253.02 26.29
  C 1255.93 25.07 1258.98 25.16 1262.03 24.43
  C 1265.35 23.63 1269.55 24.80 1272.69 25.96
  Q 1279.26 28.40 1286.03 31.01
  Q 1288.92 32.12 1291.15 34.31
  Q 1297.08 40.11 1300.50 46.02
  A 1.40 1.39 -17.7 0 1 1299.42 48.11
  Q 1295.13 48.51 1290.81 48.58
  Z"
/>
<path fill="#2c333d" d="
  M 424.38 98.91
  C 425.10 113.54 425.03 128.35 424.63 143.09
  A 1.12 1.11 -71.9 0 1 422.88 143.98
  C 419.41 141.58 415.80 139.16 411.43 139.18
  Q 398.11 139.24 384.31 139.23
  C 376.59 139.22 368.28 138.60 360.33 139.17
  A 1.50 1.48 78.2 0 1 358.82 138.17
  Q 358.33 136.74 358.54 135.05
  C 361.35 112.57 361.01 90.12 361.81 67.47
  C 361.97 62.92 361.34 57.11 362.05 53.33
  Q 363.19 47.19 368.98 40.16
  C 370.78 37.98 373.44 37.93 376.00 37.89
  Q 384.59 37.75 390.51 38.01
  C 396.00 38.26 397.84 41.19 401.34 45.90
  C 407.39 54.06 412.11 61.63 418.81 70.86
  C 422.21 75.53 423.89 78.82 424.16 84.23
  C 424.39 89.06 424.14 94.00 424.38 98.91
  Z"
/>
<path fill="#2c333d" d="
  M 468.83 47.64
  Q 473.79 49.09 479.07 48.55
  Q 479.80 48.48 480.45 48.81
  Q 481.13 49.16 481.88 49.10
  L 489.18 48.48
  A 0.82 0.82 0.0 0 0 489.71 47.11
  Q 489.15 46.50 489.62 45.83
  A 1.02 1.00 -68.6 0 1 490.56 45.41
  Q 498.53 46.32 505.29 46.24
  Q 520.51 46.07 524.92 46.41
  Q 534.83 47.17 543.70 46.97
  Q 557.54 46.67 557.82 46.66
  Q 566.53 46.59 575.25 46.40
  Q 590.02 46.10 616.49 46.56
  Q 626.25 46.73 635.98 46.32
  Q 644.97 45.94 655.48 45.71
  Q 665.88 45.48 675.50 45.15
  Q 687.52 44.72 698.74 44.42
  C 705.43 44.23 712.45 44.16 719.09 45.24
  C 723.48 45.95 727.86 46.64 732.30 46.99
  Q 741.56 47.72 750.53 50.03
  Q 755.98 51.42 759.05 51.98
  C 764.65 52.99 770.43 53.82 775.82 55.39
  C 780.27 56.69 784.98 57.52 789.29 59.64
  Q 791.93 60.94 793.70 62.59
  Q 795.35 64.13 794.18 65.95
  Q 793.87 66.43 793.29 66.38
  Q 784.31 65.60 774.99 65.80
  Q 740.70 66.55 708.83 66.00
  Q 706.96 65.96 704.96 66.26
  A 2.34 2.34 0.0 0 1 702.78 65.40
  C 700.03 61.92 697.62 58.77 692.76 58.21
  Q 681.51 56.91 670.25 56.65
  Q 669.01 56.62 667.76 57.10
  Q 667.30 57.27 666.93 56.96
  Q 666.53 56.63 666.02 56.63
  Q 662.79 56.60 659.50 56.35
  C 653.86 55.91 648.54 56.08 643.10 56.13
  C 641.25 56.15 639.52 55.69 637.66 55.96
  C 635.57 56.25 633.75 55.67 631.75 55.64
  Q 624.31 55.52 616.77 55.70
  Q 613.93 55.76 606.27 56.25
  Q 600.60 56.61 595.64 56.23
  Q 593.73 56.08 591.99 56.22
  Q 590.22 56.37 588.51 56.31
  Q 582.75 56.13 576.99 55.83
  C 576.24 55.79 575.54 56.08 574.84 56.05
  Q 562.55 55.56 550.25 55.04
  Q 543.99 54.78 532.19 55.55
  C 524.98 56.01 516.97 55.26 509.45 55.91
  Q 509.28 55.92 509.14 55.82
  Q 508.87 55.60 508.52 55.60
  Q 496.49 55.74 484.49 55.32
  Q 483.52 55.29 482.51 55.56
  C 481.65 55.80 480.76 55.36 479.82 55.35
  Q 473.91 55.31 468.27 55.58
  Q 467.35 55.62 466.26 55.94
  Q 465.25 56.25 464.25 56.30
  Q 450.74 57.01 440.47 57.94
  C 436.66 58.29 434.49 56.52 432.35 53.67
  Q 428.79 48.95 425.38 44.20
  A 1.22 1.18 49.5 0 1 425.47 42.65
  Q 425.70 42.42 426.50 42.58
  C 429.18 43.11 431.94 43.74 434.69 43.95
  Q 446.71 44.85 458.04 44.61
  C 459.16 44.58 460.08 44.96 461.16 44.90
  Q 464.54 44.74 467.74 45.05
  Q 468.37 45.11 468.37 45.75
  L 468.37 47.03
  A 0.63 0.63 0.0 0 0 468.83 47.64
  Z"
/>
<path fill="#2c333d" d="
  M 471.50 45.60
  Q 470.56 45.54 469.67 45.11
  Q 468.75 44.67 469.77 44.65
  Q 477.48 44.53 485.34 44.78
  C 486.71 44.83 487.69 45.50 488.97 45.52
  Q 489.90 45.53 489.07 45.95
  Q 488.17 46.42 487.26 46.76
  Q 486.84 46.91 486.92 47.37
  Q 487.01 47.87 486.49 47.87
  L 476.99 47.87
  Q 476.36 47.87 476.38 47.24
  Q 476.40 47.00 476.29 46.84
  Q 476.15 46.62 475.89 46.62
  L 472.65 46.62
  Q 472.33 46.62 472.05 46.47
  Q 471.78 46.32 471.85 46.15
  Q 472.05 45.64 471.50 45.60
  Z"
/>
<path fill="#a2a5a8" d="
  M 222.69 90.44
  A 2.10 2.10 0.0 0 1 224.33 90.30
  Q 244.60 96.95 265.29 105.16
  Q 276.60 109.65 289.93 106.26
  C 295.62 104.81 301.39 100.88 306.72 97.78
  Q 311.07 95.24 314.28 89.91
  Q 318.14 83.49 323.64 72.93
  C 326.21 68.00 329.21 63.40 331.84 58.45
  Q 333.59 55.16 336.23 52.96
  A 2.38 2.37 -33.2 0 1 339.88 53.72
  Q 340.80 55.57 340.79 57.46
  Q 340.69 76.65 340.43 95.21
  Q 340.29 104.81 339.63 115.24
  Q 338.25 136.97 335.93 158.00
  Q 335.17 164.92 333.04 171.01
  C 331.57 175.23 330.77 179.62 329.64 183.99
  Q 328.12 189.81 323.30 195.09
  Q 319.01 199.77 314.74 204.65
  Q 312.12 207.65 308.71 208.93
  A 1.61 1.60 79.8 0 1 306.54 207.42
  Q 306.58 201.31 306.91 196.25
  Q 308.46 172.04 309.28 150.05
  Q 309.49 144.18 305.30 140.48
  C 298.98 134.90 290.42 131.89 283.01 128.01
  Q 264.62 118.40 243.38 107.97
  Q 233.51 103.12 223.50 97.54
  Q 220.35 95.78 221.14 92.47
  Q 221.48 91.09 222.69 90.44
  Z"
/>
<path fill="#2c333d" d="
  M 1188.00 141.84
  C 1159.98 141.65 1134.02 142.16 1107.50 142.12
  Q 1063.02 142.05 1017.38 142.11
  C 1007.18 142.12 996.47 142.59 985.99 142.65
  C 971.82 142.73 958.31 143.20 944.44 143.19
  C 940.89 143.19 938.97 142.22 938.94 138.21
  Q 938.68 107.61 938.88 81.59
  Q 938.90 78.99 941.50 79.00
  C 945.01 79.02 948.65 78.72 952.16 78.72
  Q 1072.54 78.80 1186.50 78.62
  C 1191.90 78.61 1197.74 79.00 1202.64 77.31
  Q 1208.44 75.32 1214.28 71.73
  C 1218.47 69.16 1224.55 69.49 1229.25 69.49
  Q 1284.63 69.48 1330.50 69.72
  C 1334.01 69.74 1339.88 70.26 1339.90 74.50
  Q 1340.05 100.61 1339.86 127.25
  Q 1339.83 132.24 1339.99 137.34
  A 2.47 2.46 89.7 0 1 1337.47 139.89
  Q 1330.41 139.72 1323.52 140.00
  Q 1299.98 140.97 1276.00 140.90
  C 1258.81 140.85 1242.05 141.28 1225.33 141.38
  Q 1223.75 141.39 1206.67 141.74
  Q 1197.82 141.91 1188.00 141.84
  Z"
/>
<path fill="#ffffff" d="
  M 680.77 78.07
  A 1.53 1.53 0.0 0 1 682.31 79.59
  L 682.77 132.44
  A 8.16 2.20 89.5 0 1 680.64 140.62
  L 678.14 140.64
  A 8.16 2.20 89.5 0 1 675.87 132.50
  L 675.41 79.65
  A 1.53 1.53 0.0 0 1 676.93 78.11
  L 680.77 78.07
  Z"
/>
<path fill="#161616" d="
  M 486.36 133.47
  Q 485.53 133.80 485.24 132.91
  Q 484.55 130.80 484.43 128.57
  C 484.32 126.31 483.04 124.73 482.48 122.63
  Q 479.35 110.86 474.04 103.27
  Q 472.40 100.93 469.11 100.20
  Q 466.84 99.70 464.49 101.41
  Q 459.30 105.18 457.29 110.94
  C 455.91 114.89 454.49 118.84 453.71 122.93
  C 452.86 127.42 451.52 131.74 451.49 136.46
  C 451.43 145.63 449.64 162.79 464.34 162.09
  Q 468.01 161.91 471.35 162.00
  C 475.78 162.11 480.60 160.90 484.11 158.19
  A 0.77 0.76 67.0 0 1 485.33 158.69
  Q 485.97 163.22 485.97 167.29
  Q 485.94 191.36 486.14 215.03
  C 486.17 218.73 484.77 221.45 486.90 225.02
  Q 487.30 225.69 486.61 225.32
  Q 485.29 224.59 484.72 223.24
  Q 482.24 217.34 478.46 211.39
  C 476.30 208.00 471.73 204.67 467.48 206.02
  C 465.47 206.66 464.11 210.19 463.38 212.03
  C 461.15 217.68 458.42 223.28 456.91 229.12
  Q 453.02 244.12 453.67 260.30
  C 453.88 265.47 456.50 269.57 461.91 270.21
  C 468.14 270.95 473.65 270.88 480.06 272.47
  Q 484.65 273.61 489.31 271.15
  A 0.85 0.85 0.0 0 1 490.55 272.01
  L 490.46 272.76
  Q 490.32 273.85 489.26 274.15
  C 487.10 274.75 484.92 274.38 482.85 275.16
  C 476.97 277.37 469.88 276.96 463.55 276.96
  C 459.71 276.95 455.93 276.23 452.27 275.29
  C 448.68 274.37 447.32 271.84 447.58 268.16
  Q 448.06 261.41 448.13 254.01
  C 448.15 252.47 447.53 250.38 447.49 248.61
  Q 447.29 237.26 447.25 224.53
  Q 447.22 215.90 446.55 206.49
  C 445.97 198.25 445.23 190.25 445.37 181.90
  Q 445.70 161.48 445.89 141.89
  C 445.94 135.97 445.62 129.98 445.58 124.03
  C 445.56 121.00 444.71 117.78 444.64 115.00
  Q 444.34 102.71 443.92 90.42
  C 443.84 88.15 444.11 86.00 444.36 83.75
  C 444.64 81.24 446.30 79.20 448.90 79.10
  Q 466.39 78.40 484.25 78.75
  C 489.37 78.84 487.18 87.63 486.70 90.54
  Q 486.24 93.29 486.21 96.05
  Q 486.06 111.89 487.24 128.38
  Q 487.36 130.11 487.20 132.30
  Q 487.14 133.15 486.36 133.47
  Z"
/>
<rect fill="#2c333d" x="815.67" y="80.82" width="102.24" height="62.36" rx="5.20"/>
<path fill="#161616" d="
  M 661.09 96.50
  C 661.48 104.78 661.00 113.24 662.33 121.64
  Q 662.91 125.33 662.65 132.94
  C 662.50 137.27 657.63 135.09 655.54 133.99
  Q 650.85 131.52 646.10 130.24
  Q 643.55 129.55 640.14 129.50
  Q 611.21 129.08 587.15 129.45
  C 580.48 129.55 573.61 130.76 566.75 130.84
  Q 552.63 130.99 537.98 131.12
  C 526.51 131.23 519.07 137.70 510.87 144.90
  A 1.38 1.36 -54.3 0 1 509.45 145.14
  Q 508.41 144.72 508.41 143.50
  Q 508.39 131.25 507.93 119.00
  Q 507.56 109.18 508.34 89.69
  C 508.44 87.33 509.08 85.24 509.90 83.15
  A 1.16 1.16 0.0 0 1 511.84 82.80
  C 515.30 86.66 518.51 90.27 523.30 92.79
  Q 528.87 95.72 533.21 97.42
  C 536.02 98.51 539.85 99.12 543.09 99.14
  Q 562.45 99.30 581.98 99.83
  C 585.38 99.92 588.99 100.56 592.28 100.32
  Q 603.01 99.51 614.40 99.19
  C 620.06 99.04 625.61 98.08 631.38 98.05
  C 638.13 98.01 644.97 96.99 651.16 94.67
  Q 654.80 93.31 658.68 90.17
  A 1.27 1.27 0.0 0 1 660.74 90.99
  Q 660.91 92.27 660.97 93.71
  Q 661.02 95.09 661.09 96.50
  Z"
/>
<path fill="#2c333d" d="
  M 794.57 90.68
  L 793.90 139.48
  A 3.02 3.02 0.0 0 1 791.19 142.45
  Q 784.66 143.11 779.97 143.13
  Q 748.02 143.26 722.25 143.27
  Q 715.05 143.28 707.72 143.15
  Q 703.96 143.08 703.88 139.32
  Q 703.64 126.88 703.53 114.97
  C 703.45 105.95 703.94 97.26 703.47 88.27
  A 1.69 1.68 0.3 0 1 705.26 86.50
  Q 717.31 87.27 730.22 87.15
  Q 758.92 86.89 781.66 87.04
  Q 786.75 87.07 791.78 87.56
  A 3.09 3.09 0.0 0 1 794.57 90.68
  Z"
/>
<path fill="#161616" d="
  M 654.77 152.50
  C 654.38 154.47 652.81 155.83 651.50 157.22
  Q 645.42 163.63 636.20 165.27
  Q 632.51 165.92 628.62 166.65
  Q 625.92 167.16 623.31 167.27
  Q 620.63 167.39 618.12 167.43
  Q 606.06 167.62 593.75 167.79
  Q 588.82 167.86 583.27 168.44
  C 578.50 168.93 572.46 167.77 567.26 167.73
  Q 553.75 167.62 540.25 167.51
  Q 538.61 167.49 534.49 165.99
  Q 531.35 164.85 529.41 163.30
  C 526.68 161.12 521.98 156.91 525.55 153.41
  C 528.98 150.04 533.45 146.93 538.50 146.51
  C 543.88 146.07 549.26 145.50 554.62 145.49
  Q 584.23 145.46 613.91 144.90
  Q 619.13 144.80 624.95 144.18
  Q 630.09 143.63 636.47 143.70
  Q 639.94 143.74 643.54 144.96
  C 647.55 146.31 652.78 147.75 654.66 151.64
  A 1.36 1.35 -52.6 0 1 654.77 152.50
  Z"
/>
<path fill="#2c333d" d="
  M 221.77 355.83
  Q 218.62 354.49 215.39 352.64
  Q 210.77 350.00 204.29 347.09
  Q 199.27 344.83 194.13 343.79
  C 188.46 342.63 182.87 341.22 176.91 340.44
  Q 168.64 339.36 160.96 338.28
  A 14.63 14.47 -44.2 0 0 157.05 338.25
  L 144.37 339.88
  A 1.67 1.67 0.0 0 1 142.50 338.01
  C 143.26 332.19 143.24 326.41 143.95 320.47
  C 144.93 312.26 146.28 304.34 146.54 296.07
  Q 147.12 277.49 148.36 268.95
  Q 149.86 258.56 157.85 250.18
  C 161.13 246.74 170.19 246.64 174.66 246.68
  C 190.84 246.86 207.24 247.02 223.58 246.39
  C 229.09 246.18 234.46 245.15 240.01 244.45
  Q 244.51 243.88 250.39 243.50
  Q 261.51 242.79 271.92 241.33
  Q 281.76 239.94 290.41 238.70
  Q 293.94 238.20 297.52 236.69
  Q 310.11 231.41 321.51 224.94
  C 326.20 222.27 330.41 218.58 333.87 214.35
  Q 338.24 209.01 342.76 203.80
  Q 345.99 200.07 347.52 195.28
  Q 350.31 186.56 352.57 176.83
  C 353.69 171.96 355.16 167.11 356.18 162.32
  A 3.76 3.75 -84.4 0 1 359.80 159.34
  Q 382.50 159.03 402.94 159.25
  Q 407.76 159.30 412.28 163.20
  Q 417.08 167.34 422.86 173.88
  Q 425.04 176.35 425.12 179.50
  Q 425.38 189.45 425.43 197.76
  Q 425.64 231.78 425.68 266.66
  C 425.68 269.90 425.34 273.01 424.93 276.21
  C 423.94 284.08 427.94 287.51 434.68 290.46
  Q 442.32 293.80 449.47 297.16
  Q 452.22 298.46 458.50 298.47
  Q 572.77 298.76 686.00 298.47
  C 692.93 298.46 701.11 297.08 702.82 289.17
  Q 703.85 284.43 703.84 279.24
  Q 703.79 249.15 703.55 218.90
  Q 703.47 208.80 703.98 198.42
  C 704.47 188.20 703.98 178.41 703.67 168.37
  Q 703.51 163.27 708.66 163.39
  C 715.59 163.56 722.70 163.12 730.05 163.17
  Q 748.82 163.29 770.55 163.27
  A 1.25 1.25 0.0 0 1 771.65 165.11
  Q 767.90 172.19 767.91 181.14
  Q 767.91 195.46 768.06 210.95
  C 768.09 214.75 770.12 217.53 766.21 220.38
  Q 755.59 228.15 745.00 235.68
  C 741.40 238.24 738.92 243.87 737.33 247.68
  Q 733.75 256.26 730.43 265.91
  Q 728.15 272.54 727.63 277.40
  Q 725.81 294.43 723.92 306.21
  C 723.12 311.20 722.79 316.30 722.39 321.45
  C 721.87 328.09 717.49 332.65 711.54 335.42
  C 700.98 340.33 689.74 343.44 678.14 344.00
  C 672.01 344.30 665.97 345.00 659.87 344.96
  C 647.96 344.88 635.61 346.55 624.58 346.75
  Q 614.88 346.93 605.80 347.35
  C 593.44 347.92 576.21 347.06 561.46 347.43
  C 553.03 347.64 544.66 347.22 536.05 347.99
  C 524.45 349.04 512.61 350.41 501.33 353.46
  Q 496.16 354.85 489.91 357.69
  C 484.32 360.23 478.45 362.20 472.83 364.80
  Q 458.02 371.66 448.30 377.24
  C 440.71 381.60 434.76 384.40 426.01 385.60
  C 418.39 386.63 411.03 388.71 403.39 389.95
  Q 385.54 392.85 368.94 398.67
  Q 359.88 401.84 351.34 404.29
  Q 341.95 406.99 333.22 409.96
  C 328.50 411.56 323.91 413.32 319.44 415.71
  Q 306.60 422.59 293.53 429.56
  C 286.85 433.12 280.16 437.39 272.97 440.38
  Q 270.65 441.35 270.28 438.87
  C 268.86 429.28 266.70 419.49 263.15 410.21
  Q 260.92 404.38 258.96 397.94
  Q 257.34 392.59 252.32 385.67
  Q 247.53 379.06 242.89 372.55
  C 238.76 366.75 234.00 361.58 227.72 358.69
  Q 226.23 358.00 224.74 357.23
  Q 223.27 356.46 221.77 355.83
  Z
  M 247.16 330.79
  A 16.49 16.49 0.0 0 0 230.67 314.30
  A 16.49 16.49 0.0 0 0 214.18 330.79
  A 16.49 16.49 0.0 0 0 230.67 347.28
  A 16.49 16.49 0.0 0 0 247.16 330.79
  Z"
/>
<path fill="#a2a5a8" d="
  M 1029.99 162.49
  Q 1029.45 163.03 1029.61 163.49
  Q 1029.69 163.71 1030.30 164.07
  Q 1030.83 164.39 1031.27 165.00
  Q 1028.96 164.71 1027.37 163.75
  A 0.37 0.37 0.0 0 1 1027.48 163.07
  L 1029.99 162.49
  Z"
/>
<path fill="#ffffff" d="
  M 966.81 164.19
  C 965.19 167.60 964.62 171.50 964.19 175.63
  Q 963.95 177.98 961.58 178.09
  Q 952.40 178.51 942.37 178.35
  Q 941.08 178.33 940.21 177.53
  C 938.21 175.69 938.86 167.25 939.22 164.90
  A 1.89 1.88 -86.0 0 1 941.04 163.31
  L 965.97 162.90
  A 0.91 0.91 0.0 0 1 966.81 164.19
  Z"
/>
<path fill="#2c333d" d="
  M 918.00 170.93
  Q 918.13 173.30 918.07 175.53
  Q 917.87 181.87 917.65 188.95
  Q 917.54 192.51 914.22 192.84
  C 907.28 193.53 900.34 192.99 893.52 193.00
  Q 862.31 193.05 828.53 193.24
  C 825.90 193.25 820.86 193.32 820.62 189.54
  Q 820.25 183.70 820.00 178.16
  C 819.81 173.84 818.49 169.55 817.27 165.40
  A 1.52 1.52 0.0 0 1 818.24 163.53
  Q 818.96 163.29 819.73 163.31
  C 828.49 163.56 837.68 163.09 846.16 163.14
  Q 874.82 163.30 900.17 163.21
  C 904.09 163.20 907.90 163.63 911.81 163.66
  C 917.25 163.70 917.72 166.13 918.00 170.93
  Z"
/>
<path fill="#161616" d="
  M 508.29 170.13
  Q 508.34 168.76 508.50 167.49
  A 0.94 0.92 88.3 0 1 509.23 166.70
  C 511.65 166.20 516.20 171.13 517.85 172.84
  Q 523.52 178.71 533.16 180.74
  C 540.49 182.29 547.12 183.00 554.63 183.01
  Q 582.17 183.04 610.00 183.03
  Q 621.57 183.02 628.77 181.74
  Q 633.16 180.96 637.93 179.98
  C 641.80 179.19 646.27 177.95 649.70 176.00
  C 652.41 174.46 658.18 170.60 661.19 170.70
  A 1.25 1.24 3.1 0 1 662.39 172.03
  Q 662.14 175.79 662.31 179.76
  C 662.73 189.77 663.75 199.76 663.82 209.67
  Q 663.92 223.04 664.08 236.24
  Q 664.11 238.33 663.47 239.96
  Q 662.86 241.52 661.38 240.94
  Q 660.66 240.66 660.03 240.12
  Q 656.96 237.45 651.91 236.17
  C 646.95 234.91 641.79 233.35 636.71 233.09
  C 632.51 232.88 628.53 231.89 624.33 231.57
  C 621.25 231.34 618.25 230.97 615.15 230.98
  Q 597.51 231.01 575.61 230.95
  Q 564.83 230.92 555.47 231.57
  Q 543.60 232.39 534.58 234.36
  C 527.22 235.97 521.82 239.64 516.06 244.30
  A 1.82 1.81 65.2 0 1 513.13 243.22
  C 512.37 239.10 511.37 234.96 511.21 230.86
  Q 510.90 222.87 508.85 215.20
  C 508.38 213.47 508.21 211.40 508.15 209.61
  Q 507.58 190.61 508.29 170.13
  Z"
/>
<path fill="#ffffff" d="
  M 679.86 248.76
  Q 679.86 248.96 679.85 249.15
  Q 679.84 249.25 679.79 249.33
  Q 679.77 249.37 679.75 249.41
  Q 679.68 249.53 679.67 249.39
  Q 678.76 235.79 678.31 220.88
  Q 678.26 219.23 679.91 219.16
  L 680.16 219.15
  Q 682.05 219.06 682.12 220.95
  Q 682.91 241.72 683.05 261.32
  Q 683.11 268.88 682.72 276.00
  Q 682.67 277.00 682.14 278.10
  Q 681.75 278.92 680.89 278.87
  A 0.48 0.47 0.7 0 1 680.43 278.41
  Q 680.00 263.38 679.88 248.76
  Q 679.87 248.02 679.86 248.76
  Z"
/>
<path fill="#161616" d="
  M 542.57 259.29
  C 538.81 259.40 535.07 258.01 531.66 256.50
  A 1.77 1.76 -73.0 0 1 530.64 254.58
  C 531.21 251.49 536.83 249.38 539.52 249.06
  C 541.86 248.78 543.82 247.92 546.26 247.90
  Q 559.95 247.79 573.91 247.32
  Q 579.09 247.15 584.86 246.27
  Q 592.83 245.05 602.11 246.32
  C 611.85 247.66 622.06 247.28 631.79 247.66
  C 635.62 247.81 639.40 249.00 643.25 249.70
  C 645.61 250.13 647.73 250.97 649.84 251.96
  Q 652.34 253.13 652.36 255.70
  A 1.35 1.35 0.0 0 1 651.93 256.71
  Q 651.00 257.58 649.80 257.81
  Q 638.20 260.09 626.86 260.62
  C 617.82 261.05 608.83 261.79 599.76 262.36
  C 596.36 262.58 593.11 262.41 589.76 262.17
  Q 577.14 261.30 562.47 259.60
  C 555.57 258.80 549.29 259.10 542.57 259.29
  Z"
/>
<path fill="#2c333d" d="
  M 683.23 264.43
  C 683.22 262.68 682.85 259.97 683.23 258.42
  Q 683.47 257.44 683.51 258.45
  Q 683.66 261.54 683.49 264.39
  Q 683.48 264.49 683.38 264.51
  Q 683.33 264.51 683.29 264.50
  Q 683.23 264.48 683.23 264.43
  Z"
/>
<circle fill="#ffffff" cx="230.67" cy="330.79" r="16.49"/>
<path fill="#51403e" d="
  M 249.11 436.63
  Q 250.21 446.18 253.37 455.27
  C 254.04 457.22 253.60 458.64 252.22 459.98
  C 247.38 464.68 243.05 469.92 238.26 474.63
  C 231.24 481.54 227.70 488.34 224.01 497.91
  Q 217.31 515.30 210.62 532.74
  Q 208.77 537.54 207.59 541.89
  C 206.44 546.09 204.51 549.81 203.84 554.15
  Q 202.11 565.29 199.29 576.37
  Q 198.38 579.92 197.97 583.73
  C 197.62 587.01 196.44 590.22 195.75 593.49
  Q 192.83 607.23 190.74 617.85
  C 189.26 625.34 189.13 633.57 188.02 641.64
  Q 187.28 647.03 186.58 652.17
  Q 185.74 658.44 185.27 666.34
  C 184.57 678.23 183.02 689.87 181.49 701.51
  Q 180.48 709.19 180.20 717.90
  Q 179.94 726.02 178.56 735.31
  Q 178.02 738.97 174.56 738.92
  Q 155.55 738.59 135.39 740.63
  Q 129.42 741.24 120.03 739.91
  C 110.37 738.54 101.31 736.92 90.73 736.06
  Q 82.17 735.35 78.00 733.95
  C 66.21 729.99 54.28 725.82 42.24 722.08
  Q 35.71 720.06 29.48 717.08
  Q 25.78 715.31 26.07 710.86
  Q 26.61 702.49 27.73 694.31
  C 28.76 686.79 28.82 679.07 29.07 671.24
  Q 29.54 655.89 31.56 641.08
  C 31.97 638.14 33.00 635.05 33.32 631.89
  C 34.29 622.62 36.63 613.26 37.83 604.46
  Q 39.05 595.58 40.97 586.67
  Q 41.77 582.94 42.12 579.26
  C 42.44 575.83 42.70 572.45 44.30 569.32
  C 46.71 564.57 47.16 559.45 49.05 554.56
  Q 50.37 551.15 51.39 547.39
  Q 52.08 544.81 54.13 539.60
  C 55.87 535.18 56.75 530.65 58.67 526.27
  C 60.37 522.41 61.01 518.27 62.68 514.42
  C 64.28 510.73 64.57 506.65 66.27 503.14
  Q 70.38 494.67 74.22 485.42
  C 77.99 476.33 83.21 467.76 86.59 459.04
  Q 88.20 454.85 89.73 452.01
  Q 91.63 448.47 93.03 445.32
  C 94.39 442.24 96.08 439.50 97.35 436.36
  Q 99.93 429.99 103.75 422.89
  Q 105.58 419.49 110.67 408.08
  Q 112.60 403.75 115.22 399.67
  Q 117.90 395.48 120.31 391.48
  Q 128.61 377.64 136.03 365.00
  C 138.08 361.50 141.02 361.11 145.51 360.15
  Q 152.04 358.76 156.74 358.30
  Q 161.09 357.89 168.32 359.46
  Q 176.27 361.18 183.84 362.08
  Q 186.31 362.37 189.15 363.37
  Q 201.21 367.63 216.74 376.10
  C 225.78 381.02 230.15 390.31 235.95 398.50
  Q 238.42 401.99 239.87 405.72
  C 241.21 409.19 242.57 412.49 243.60 416.07
  Q 245.24 421.77 247.46 427.28
  Q 248.27 429.28 249.11 436.63
  Z
  M 149.03 536.17
  A 37.68 37.68 0.0 0 0 111.35 498.49
  A 37.68 37.68 0.0 0 0 73.67 536.17
  A 37.68 37.68 0.0 0 0 111.35 573.85
  A 37.68 37.68 0.0 0 0 149.03 536.17
  Z"
/>
<path fill="#ffffff" d="
  M 443.86 518.70
  Q 438.41 516.05 435.86 513.79
  Q 428.98 507.66 420.50 498.73
  Q 418.25 496.36 416.60 493.51
  Q 411.57 484.83 406.64 476.40
  C 405.23 473.99 405.05 471.46 406.12 468.83
  C 408.52 462.97 408.03 456.74 408.20 450.48
  C 408.37 444.24 410.25 437.69 411.48 431.26
  C 412.48 425.97 420.85 418.71 424.86 415.82
  C 433.96 409.26 443.06 404.54 452.95 399.69
  C 456.68 397.85 459.37 399.86 462.75 399.36
  Q 475.09 397.53 486.80 395.84
  Q 488.98 395.53 491.14 395.92
  Q 496.87 396.96 501.73 397.88
  Q 504.15 398.35 505.86 400.49
  C 510.53 406.32 509.57 414.59 506.60 420.93
  Q 503.80 426.92 503.32 432.51
  Q 502.34 443.97 502.53 456.69
  C 502.63 463.17 503.61 469.09 505.87 475.24
  C 508.82 483.23 511.05 492.10 516.28 498.97
  Q 520.06 503.94 523.65 508.79
  C 526.30 512.37 530.31 514.80 534.53 516.26
  C 543.40 519.33 552.29 522.59 561.76 522.25
  Q 568.94 521.99 576.44 521.70
  C 579.88 521.56 586.59 520.72 588.04 517.06
  C 592.76 505.21 583.20 499.86 572.96 501.20
  C 567.45 501.92 560.68 502.66 555.40 500.95
  Q 552.56 500.03 549.63 499.46
  C 543.56 498.29 539.49 495.92 535.87 490.78
  C 529.80 482.19 525.96 471.49 523.40 461.84
  Q 523.00 460.30 522.99 458.64
  Q 522.97 446.91 523.23 437.78
  Q 523.34 434.16 525.24 430.30
  Q 531.99 416.55 539.22 404.89
  Q 541.82 400.69 546.39 397.27
  Q 555.83 390.20 565.58 381.65
  C 570.24 377.56 573.45 374.83 575.09 368.67
  A 1.45 1.44 6.0 0 1 576.42 367.60
  Q 596.08 366.76 615.37 367.04
  C 620.62 367.12 626.31 369.82 631.31 372.94
  Q 643.49 380.52 651.72 392.65
  Q 655.22 397.81 658.45 402.86
  Q 662.23 408.75 662.87 412.80
  Q 663.64 417.68 663.84 421.75
  Q 664.30 431.32 664.62 440.87
  Q 664.76 444.97 663.00 449.40
  Q 660.15 456.60 657.37 463.66
  Q 655.44 468.56 652.63 472.36
  C 643.72 484.46 633.71 496.34 622.23 506.76
  Q 618.39 510.24 612.91 513.45
  C 605.44 517.83 599.22 521.69 591.45 522.57
  Q 586.72 523.10 583.37 523.95
  Q 580.05 524.80 577.05 525.33
  Q 563.03 527.83 548.75 531.31
  C 545.73 532.05 541.22 532.82 537.40 533.10
  Q 524.95 534.00 510.76 535.18
  C 501.82 535.93 492.56 533.93 483.76 533.47
  Q 480.50 533.30 473.72 530.82
  Q 465.78 527.91 458.02 525.10
  Q 454.20 523.71 443.86 518.70
  Z"
/>
<path fill="#000000" d="
  M 149.03 536.17
  A 37.68 37.68 0.0 0 1 111.35 573.85
  A 37.68 37.68 0.0 0 1 73.67 536.17
  A 37.68 37.68 0.0 0 1 111.35 498.49
  A 37.68 37.68 0.0 0 1 149.03 536.17
  Z
  M 112.3800 557.2673
  A 20.96 20.53 86.8 0 0 131.7080 535.1940
  A 20.96 20.53 86.8 0 0 110.0400 515.4127
  A 20.96 20.53 86.8 0 0 90.7120 537.4860
  A 20.96 20.53 86.8 0 0 112.3800 557.2673
  Z"
/>
<ellipse fill="#2c333d" cx="0.00" cy="0.00" transform="translate(111.21,536.34) rotate(86.8)" rx="20.96" ry="20.53"/>
</svg>
